G04 #@! TF.GenerationSoftware,KiCad,Pcbnew,5.1.9*
G04 #@! TF.CreationDate,2021-04-07T10:26:00-06:00*
G04 #@! TF.ProjectId,corne-cherry,636f726e-652d-4636-9865-7272792e6b69,3.0.1*
G04 #@! TF.SameCoordinates,Original*
G04 #@! TF.FileFunction,Copper,L2,Bot*
G04 #@! TF.FilePolarity,Positive*
%FSLAX46Y46*%
G04 Gerber Fmt 4.6, Leading zero omitted, Abs format (unit mm)*
G04 Created by KiCad (PCBNEW 5.1.9) date 2021-04-07 10:26:00*
%MOMM*%
%LPD*%
G01*
G04 APERTURE LIST*
G04 #@! TA.AperFunction,SMDPad,CuDef*
%ADD10R,2.200000X2.200000*%
G04 #@! TD*
G04 #@! TA.AperFunction,SMDPad,CuDef*
%ADD11R,1.000000X1.500000*%
G04 #@! TD*
G04 #@! TA.AperFunction,SMDPad,CuDef*
%ADD12R,1.700000X1.000000*%
G04 #@! TD*
G04 #@! TA.AperFunction,SMDPad,CuDef*
%ADD13C,0.100000*%
G04 #@! TD*
G04 #@! TA.AperFunction,ComponentPad*
%ADD14R,1.700000X1.700000*%
G04 #@! TD*
G04 #@! TA.AperFunction,SMDPad,CuDef*
%ADD15R,2.550000X2.500000*%
G04 #@! TD*
G04 #@! TA.AperFunction,ComponentPad*
%ADD16C,1.600000*%
G04 #@! TD*
G04 #@! TA.AperFunction,ComponentPad*
%ADD17C,1.524000*%
G04 #@! TD*
G04 #@! TA.AperFunction,ComponentPad*
%ADD18O,1.700000X1.700000*%
G04 #@! TD*
G04 #@! TA.AperFunction,ComponentPad*
%ADD19C,2.000000*%
G04 #@! TD*
G04 #@! TA.AperFunction,ComponentPad*
%ADD20O,1.397000X1.778000*%
G04 #@! TD*
G04 #@! TA.AperFunction,ComponentPad*
%ADD21O,2.500000X1.700000*%
G04 #@! TD*
G04 #@! TA.AperFunction,SMDPad,CuDef*
%ADD22R,1.000000X1.400000*%
G04 #@! TD*
G04 #@! TA.AperFunction,ViaPad*
%ADD23C,0.600000*%
G04 #@! TD*
G04 #@! TA.AperFunction,Conductor*
%ADD24C,0.250000*%
G04 #@! TD*
G04 #@! TA.AperFunction,Conductor*
%ADD25C,0.254000*%
G04 #@! TD*
G04 #@! TA.AperFunction,Conductor*
%ADD26C,0.508000*%
G04 #@! TD*
G04 #@! TA.AperFunction,Conductor*
%ADD27C,0.500000*%
G04 #@! TD*
G04 APERTURE END LIST*
D10*
X161987500Y-49990000D03*
X161987500Y-36790000D03*
X134812500Y-50020000D03*
X134812500Y-36820000D03*
D11*
X163206500Y-83178000D03*
X164506500Y-83178000D03*
X165806500Y-83178000D03*
X132663000Y-83559000D03*
X133963000Y-83559000D03*
X135263000Y-83559000D03*
D12*
X279364500Y-78175000D03*
X279364500Y-79575000D03*
X273864500Y-78175000D03*
X273864500Y-79575000D03*
X273864500Y-60575000D03*
X273864500Y-59175000D03*
X279364500Y-60575000D03*
X279364500Y-59175000D03*
X279364500Y-40175000D03*
X279364500Y-41575000D03*
X273864500Y-40175000D03*
X273864500Y-41575000D03*
X260364500Y-78175000D03*
X260364500Y-79575000D03*
X254864500Y-78175000D03*
X254864500Y-79575000D03*
X254864500Y-60575000D03*
X254864500Y-59175000D03*
X260364500Y-60575000D03*
X260364500Y-59175000D03*
X260364500Y-40175000D03*
X260364500Y-41575000D03*
X254864500Y-40175000D03*
X254864500Y-41575000D03*
X241364500Y-73425000D03*
X241364500Y-74825000D03*
X235864500Y-73425000D03*
X235864500Y-74825000D03*
X235864500Y-55825000D03*
X235864500Y-54425000D03*
X241364500Y-55825000D03*
X241364500Y-54425000D03*
X241364500Y-35425000D03*
X241364500Y-36825000D03*
X235864500Y-35425000D03*
X235864500Y-36825000D03*
X207603500Y-94863500D03*
X207603500Y-93463500D03*
X213103500Y-94863500D03*
X213103500Y-93463500D03*
X222364500Y-71050000D03*
X222364500Y-72450000D03*
X216864500Y-71050000D03*
X216864500Y-72450000D03*
X216864500Y-53450000D03*
X216864500Y-52050000D03*
X222364500Y-53450000D03*
X222364500Y-52050000D03*
X222364500Y-33050000D03*
X222364500Y-34450000D03*
X216864500Y-33050000D03*
X216864500Y-34450000D03*
G04 #@! TA.AperFunction,SMDPad,CuDef*
D13*
G36*
X189459488Y-97096777D02*
G01*
X189801508Y-98036469D01*
X188204030Y-98617903D01*
X187862010Y-97678211D01*
X189459488Y-97096777D01*
G37*
G04 #@! TD.AperFunction*
G04 #@! TA.AperFunction,SMDPad,CuDef*
G36*
X188980660Y-95781208D02*
G01*
X189322680Y-96720900D01*
X187725202Y-97302334D01*
X187383182Y-96362642D01*
X188980660Y-95781208D01*
G37*
G04 #@! TD.AperFunction*
G04 #@! TA.AperFunction,SMDPad,CuDef*
G36*
X194627798Y-95215666D02*
G01*
X194969818Y-96155358D01*
X193372340Y-96736792D01*
X193030320Y-95797100D01*
X194627798Y-95215666D01*
G37*
G04 #@! TD.AperFunction*
G04 #@! TA.AperFunction,SMDPad,CuDef*
G36*
X194148970Y-93900097D02*
G01*
X194490990Y-94839789D01*
X192893512Y-95421223D01*
X192551492Y-94481531D01*
X194148970Y-93900097D01*
G37*
G04 #@! TD.AperFunction*
D12*
X203364500Y-73425000D03*
X203364500Y-74825000D03*
X197864500Y-73425000D03*
X197864500Y-74825000D03*
X197864500Y-55825000D03*
X197864500Y-54425000D03*
X203364500Y-55825000D03*
X203364500Y-54425000D03*
X203364500Y-35425000D03*
X203364500Y-36825000D03*
X197864500Y-35425000D03*
X197864500Y-36825000D03*
G04 #@! TA.AperFunction,SMDPad,CuDef*
D13*
G36*
X161224295Y-96110552D02*
G01*
X160358269Y-96610552D01*
X159508269Y-95138308D01*
X160374295Y-94638308D01*
X161224295Y-96110552D01*
G37*
G04 #@! TD.AperFunction*
G04 #@! TA.AperFunction,SMDPad,CuDef*
G36*
X162436731Y-95410552D02*
G01*
X161570705Y-95910552D01*
X160720705Y-94438308D01*
X161586731Y-93938308D01*
X162436731Y-95410552D01*
G37*
G04 #@! TD.AperFunction*
G04 #@! TA.AperFunction,SMDPad,CuDef*
G36*
X163974295Y-100873692D02*
G01*
X163108269Y-101373692D01*
X162258269Y-99901448D01*
X163124295Y-99401448D01*
X163974295Y-100873692D01*
G37*
G04 #@! TD.AperFunction*
G04 #@! TA.AperFunction,SMDPad,CuDef*
G36*
X165186731Y-100173692D02*
G01*
X164320705Y-100673692D01*
X163470705Y-99201448D01*
X164336731Y-98701448D01*
X165186731Y-100173692D01*
G37*
G04 #@! TD.AperFunction*
D12*
X184364500Y-75800000D03*
X184364500Y-77200000D03*
X178864500Y-75800000D03*
X178864500Y-77200000D03*
X178864500Y-58200000D03*
X178864500Y-56800000D03*
X184364500Y-58200000D03*
X184364500Y-56800000D03*
X184357500Y-37805000D03*
X184357500Y-39205000D03*
X178857500Y-37805000D03*
X178857500Y-39205000D03*
D14*
X238614500Y-79625000D03*
X58107500Y-79630000D03*
D15*
X120949500Y-47325000D03*
X108022500Y-49865000D03*
X101949500Y-44950000D03*
X89022500Y-47490000D03*
G04 #@! TA.AperFunction,SMDPad,CuDef*
D13*
G36*
X133325905Y-99731648D02*
G01*
X134191931Y-100231648D01*
X133341931Y-101703892D01*
X132475905Y-101203892D01*
X133325905Y-99731648D01*
G37*
G04 #@! TD.AperFunction*
G04 #@! TA.AperFunction,SMDPad,CuDef*
G36*
X132113469Y-99031648D02*
G01*
X132979495Y-99531648D01*
X132129495Y-101003892D01*
X131263469Y-100503892D01*
X132113469Y-99031648D01*
G37*
G04 #@! TD.AperFunction*
G04 #@! TA.AperFunction,SMDPad,CuDef*
G36*
X136075905Y-94968508D02*
G01*
X136941931Y-95468508D01*
X136091931Y-96940752D01*
X135225905Y-96440752D01*
X136075905Y-94968508D01*
G37*
G04 #@! TD.AperFunction*
G04 #@! TA.AperFunction,SMDPad,CuDef*
G36*
X134863469Y-94268508D02*
G01*
X135729495Y-94768508D01*
X134879495Y-96240752D01*
X134013469Y-95740752D01*
X134863469Y-94268508D01*
G37*
G04 #@! TD.AperFunction*
D12*
X117857500Y-75805000D03*
X117857500Y-77205000D03*
X112357500Y-75805000D03*
X112357500Y-77205000D03*
X112357500Y-58205000D03*
X112357500Y-56805000D03*
X117857500Y-58205000D03*
X117857500Y-56805000D03*
X117857500Y-37805000D03*
X117857500Y-39205000D03*
X112357500Y-37805000D03*
X112357500Y-39205000D03*
G04 #@! TA.AperFunction,SMDPad,CuDef*
D13*
G36*
X109727418Y-96362642D02*
G01*
X109385398Y-97302334D01*
X107787920Y-96720900D01*
X108129940Y-95781208D01*
X109727418Y-96362642D01*
G37*
G04 #@! TD.AperFunction*
G04 #@! TA.AperFunction,SMDPad,CuDef*
G36*
X109248590Y-97678211D02*
G01*
X108906570Y-98617903D01*
X107309092Y-98036469D01*
X107651112Y-97096777D01*
X109248590Y-97678211D01*
G37*
G04 #@! TD.AperFunction*
G04 #@! TA.AperFunction,SMDPad,CuDef*
G36*
X104559108Y-94481531D02*
G01*
X104217088Y-95421223D01*
X102619610Y-94839789D01*
X102961630Y-93900097D01*
X104559108Y-94481531D01*
G37*
G04 #@! TD.AperFunction*
G04 #@! TA.AperFunction,SMDPad,CuDef*
G36*
X104080280Y-95797100D02*
G01*
X103738260Y-96736792D01*
X102140782Y-96155358D01*
X102482802Y-95215666D01*
X104080280Y-95797100D01*
G37*
G04 #@! TD.AperFunction*
D12*
X98857500Y-73430000D03*
X98857500Y-74830000D03*
X93357500Y-73430000D03*
X93357500Y-74830000D03*
X93357500Y-55830000D03*
X93357500Y-54430000D03*
X98857500Y-55830000D03*
X98857500Y-54430000D03*
X98857500Y-35430000D03*
X98857500Y-36830000D03*
X93357500Y-35430000D03*
X93357500Y-36830000D03*
X83857500Y-94455000D03*
X83857500Y-93055000D03*
X89357500Y-94455000D03*
X89357500Y-93055000D03*
X79857500Y-71055000D03*
X79857500Y-72455000D03*
X74357500Y-71055000D03*
X74357500Y-72455000D03*
X74357500Y-53455000D03*
X74357500Y-52055000D03*
X79857500Y-53455000D03*
X79857500Y-52055000D03*
X79857500Y-33055000D03*
X79857500Y-34455000D03*
X74357500Y-33055000D03*
X74357500Y-34455000D03*
X60857500Y-73430000D03*
X60857500Y-74830000D03*
X55357500Y-73430000D03*
X55357500Y-74830000D03*
X55357500Y-55830000D03*
X55357500Y-54430000D03*
X60857500Y-55830000D03*
X60857500Y-54430000D03*
X60857500Y-35430000D03*
X60857500Y-36830000D03*
X55357500Y-35430000D03*
X55357500Y-36830000D03*
X41857500Y-78180000D03*
X41857500Y-79580000D03*
X36357500Y-78180000D03*
X36357500Y-79580000D03*
X36357500Y-60580000D03*
X36357500Y-59180000D03*
X41857500Y-60580000D03*
X41857500Y-59180000D03*
X41857500Y-40180000D03*
X41857500Y-41580000D03*
X36357500Y-40180000D03*
X36357500Y-41580000D03*
X22857500Y-78180000D03*
X22857500Y-79580000D03*
X17357500Y-78180000D03*
X17357500Y-79580000D03*
X17357500Y-60580000D03*
X17357500Y-59180000D03*
X22857500Y-60580000D03*
X22857500Y-59180000D03*
X22857500Y-40180000D03*
X22857500Y-41580000D03*
X17357500Y-40180000D03*
X17357500Y-41580000D03*
G04 #@! TA.AperFunction,ComponentPad*
G36*
G01*
X160073889Y-80454280D02*
X160073889Y-80454280D01*
G75*
G02*
X161000654Y-79805353I787846J-138919D01*
G01*
X161000654Y-79805353D01*
G75*
G02*
X161649581Y-80732118I-138919J-787846D01*
G01*
X161649581Y-80732118D01*
G75*
G02*
X160722816Y-81381045I-787846J138919D01*
G01*
X160722816Y-81381045D01*
G75*
G02*
X160073889Y-80454280I138919J787846D01*
G01*
G37*
G04 #@! TD.AperFunction*
D16*
X153357500Y-79270000D03*
G04 #@! TA.AperFunction,ComponentPad*
G36*
G01*
X136771111Y-80414280D02*
X136771111Y-80414280D01*
G75*
G02*
X136122184Y-81341045I-787846J-138919D01*
G01*
X136122184Y-81341045D01*
G75*
G02*
X135195419Y-80692118I-138919J787846D01*
G01*
X135195419Y-80692118D01*
G75*
G02*
X135844346Y-79765353I787846J138919D01*
G01*
X135844346Y-79765353D01*
G75*
G02*
X136771111Y-80414280I138919J-787846D01*
G01*
G37*
G04 #@! TD.AperFunction*
X143487500Y-79230000D03*
D17*
X154378900Y-31912000D03*
X154378900Y-34452000D03*
X154378900Y-36992000D03*
X154378900Y-39532000D03*
X154378900Y-42072000D03*
X154378900Y-44612000D03*
X154378900Y-47152000D03*
X154378900Y-49692000D03*
X154378900Y-52232000D03*
X154378900Y-54772000D03*
X154378900Y-57312000D03*
X154378900Y-59852000D03*
X169598900Y-59852000D03*
X169598900Y-57312000D03*
X169598900Y-54772000D03*
X169598900Y-52232000D03*
X169598900Y-49692000D03*
X169598900Y-47152000D03*
X169598900Y-44612000D03*
X169598900Y-42072000D03*
X169598900Y-39532000D03*
X169598900Y-36992000D03*
X169598900Y-34452000D03*
X169598900Y-31912000D03*
D15*
X244456500Y-63945000D03*
X231529500Y-66485000D03*
X263456500Y-68695000D03*
X250529500Y-71235000D03*
X282456500Y-49695000D03*
X269529500Y-52235000D03*
X187449500Y-28325000D03*
X174522500Y-30865000D03*
X101949500Y-25950000D03*
X89022500Y-28490000D03*
D18*
X165797500Y-59880000D03*
X165797500Y-57340000D03*
D14*
X165797500Y-54800000D03*
D18*
X132837500Y-59940000D03*
X132837500Y-57400000D03*
D14*
X132837500Y-54860000D03*
D17*
X127203900Y-31942000D03*
X127203900Y-34482000D03*
X127203900Y-37022000D03*
X127203900Y-39562000D03*
X127203900Y-42102000D03*
X127203900Y-44642000D03*
X127203900Y-47182000D03*
X127203900Y-49722000D03*
X127203900Y-52262000D03*
X127203900Y-54802000D03*
X127203900Y-57342000D03*
X127203900Y-59882000D03*
X142423900Y-59882000D03*
X142423900Y-57342000D03*
X142423900Y-54802000D03*
X142423900Y-52262000D03*
X142423900Y-49722000D03*
X142423900Y-47182000D03*
X142423900Y-44642000D03*
X142423900Y-42102000D03*
X142423900Y-39562000D03*
X142423900Y-37022000D03*
X142423900Y-34482000D03*
X142423900Y-31942000D03*
D19*
X154304500Y-63272000D03*
X154304500Y-69772000D03*
X142424500Y-63281000D03*
X142424500Y-69781000D03*
D20*
X165797500Y-67020000D03*
X163257500Y-67020000D03*
X160717500Y-67020000D03*
X158177500Y-67020000D03*
X138568500Y-67028000D03*
X136028500Y-67028000D03*
X133488500Y-67028000D03*
X130948500Y-67028000D03*
D21*
X164337500Y-76370000D03*
X162837500Y-72170000D03*
X158837500Y-72170000D03*
X155837500Y-72170000D03*
X132334500Y-72192000D03*
X133834500Y-76392000D03*
X137834500Y-76392000D03*
X140834500Y-76392000D03*
G04 #@! TA.AperFunction,SMDPad,CuDef*
D13*
G36*
X127934059Y-85826498D02*
G01*
X130099123Y-87076498D01*
X128824123Y-89284862D01*
X126659059Y-88034862D01*
X127934059Y-85826498D01*
G37*
G04 #@! TD.AperFunction*
G04 #@! TA.AperFunction,SMDPad,CuDef*
G36*
X123670263Y-98291608D02*
G01*
X125835327Y-99541608D01*
X124560327Y-101749972D01*
X122395263Y-100499972D01*
X123670263Y-98291608D01*
G37*
G04 #@! TD.AperFunction*
G04 #@! TA.AperFunction,SMDPad,CuDef*
G36*
X175904941Y-98148502D02*
G01*
X173739877Y-99398502D01*
X172464877Y-97190138D01*
X174629941Y-95940138D01*
X175904941Y-98148502D01*
G37*
G04 #@! TD.AperFunction*
G04 #@! TA.AperFunction,SMDPad,CuDef*
G36*
X167241737Y-88223392D02*
G01*
X165076673Y-89473392D01*
X163801673Y-87265028D01*
X165966737Y-86015028D01*
X167241737Y-88223392D01*
G37*
G04 #@! TD.AperFunction*
D15*
X120949500Y-28325000D03*
X108022500Y-30865000D03*
X187456500Y-47320000D03*
X174529500Y-49860000D03*
X187456500Y-66320000D03*
X174529500Y-68860000D03*
X25949500Y-68700000D03*
X13022500Y-71240000D03*
X225456500Y-61570000D03*
X212529500Y-64110000D03*
X44949500Y-68700000D03*
X32022500Y-71240000D03*
X25949500Y-49700000D03*
X13022500Y-52240000D03*
X44949500Y-49700000D03*
X32022500Y-52240000D03*
X25949500Y-30700000D03*
X13022500Y-33240000D03*
X44949500Y-30700000D03*
X32022500Y-33240000D03*
X63949500Y-25950000D03*
X51022500Y-28490000D03*
X82949500Y-23575000D03*
X70022500Y-26115000D03*
X63949500Y-44950000D03*
X51022500Y-47490000D03*
X82949500Y-42575000D03*
X70022500Y-45115000D03*
X63949500Y-63950000D03*
X51022500Y-66490000D03*
X82949500Y-61575000D03*
X70022500Y-64115000D03*
X101949500Y-63950000D03*
X89022500Y-66490000D03*
X120949500Y-66325000D03*
X108022500Y-68865000D03*
X92449500Y-83575000D03*
X79522500Y-86115000D03*
G04 #@! TA.AperFunction,SMDPad,CuDef*
D13*
G36*
X116120318Y-87132705D02*
G01*
X115473271Y-89547520D01*
X113010160Y-88887531D01*
X113657207Y-86472716D01*
X116120318Y-87132705D01*
G37*
G04 #@! TD.AperFunction*
G04 #@! TA.AperFunction,SMDPad,CuDef*
G36*
X102976395Y-86240402D02*
G01*
X102329348Y-88655217D01*
X99866237Y-87995228D01*
X100513284Y-85580413D01*
X102976395Y-86240402D01*
G37*
G04 #@! TD.AperFunction*
D15*
X282456500Y-30695000D03*
X269529500Y-33235000D03*
X263456500Y-30695000D03*
X250529500Y-33235000D03*
X244456500Y-25945000D03*
X231529500Y-28485000D03*
X225456500Y-23570000D03*
X212529500Y-26110000D03*
X206456500Y-25945000D03*
X193529500Y-28485000D03*
X263456500Y-49695000D03*
X250529500Y-52235000D03*
X244456500Y-44945000D03*
X231529500Y-47485000D03*
X225456500Y-42570000D03*
X212529500Y-45110000D03*
X206456500Y-44945000D03*
X193529500Y-47485000D03*
X282456500Y-68695000D03*
X269529500Y-71235000D03*
X206456500Y-63945000D03*
X193529500Y-66485000D03*
X215956500Y-83570000D03*
X203029500Y-86110000D03*
G04 #@! TA.AperFunction,SMDPad,CuDef*
D13*
G36*
X194350670Y-83443674D02*
G01*
X194997717Y-85858489D01*
X192534606Y-86518478D01*
X191887559Y-84103663D01*
X194350670Y-83443674D01*
G37*
G04 #@! TD.AperFunction*
G04 #@! TA.AperFunction,SMDPad,CuDef*
G36*
X182521547Y-89242879D02*
G01*
X183168594Y-91657694D01*
X180705483Y-92317683D01*
X180058436Y-89902868D01*
X182521547Y-89242879D01*
G37*
G04 #@! TD.AperFunction*
D22*
X103707500Y-48255000D03*
X103707500Y-51805000D03*
X65707500Y-48255000D03*
X65707500Y-51805000D03*
X227214500Y-26875000D03*
X227214500Y-30425000D03*
X27734500Y-34001875D03*
X27734500Y-37551875D03*
X46734500Y-34005000D03*
X46734500Y-37555000D03*
X65707500Y-29005000D03*
X65707500Y-32555000D03*
X84707500Y-26880000D03*
X84707500Y-30430000D03*
X103707500Y-29255000D03*
X103707500Y-32805000D03*
X122707500Y-31630000D03*
X122707500Y-35180000D03*
X27734500Y-53001875D03*
X27734500Y-56551875D03*
X46734500Y-53005000D03*
X46734500Y-56555000D03*
X84707500Y-45880000D03*
X84707500Y-49430000D03*
X122707500Y-50630000D03*
X122707500Y-54180000D03*
X27734500Y-72001875D03*
X27734500Y-75551875D03*
X46734500Y-72005000D03*
X46734500Y-75555000D03*
X65707500Y-67255000D03*
X65707500Y-70805000D03*
X84707500Y-64880000D03*
X84707500Y-68430000D03*
X103707500Y-67255000D03*
X103707500Y-70805000D03*
X122707500Y-69630000D03*
X122707500Y-73180000D03*
X76157500Y-86995000D03*
X76157500Y-90545000D03*
X95164500Y-86990000D03*
X95164500Y-90540000D03*
X98007500Y-86990000D03*
X98007500Y-90540000D03*
X284214500Y-34000000D03*
X284214500Y-37550000D03*
X265214500Y-34000000D03*
X265214500Y-37550000D03*
X246214500Y-29250000D03*
X246214500Y-32800000D03*
X208214500Y-29250000D03*
X208214500Y-32800000D03*
X189207500Y-31630000D03*
X189207500Y-35180000D03*
X284214500Y-52850000D03*
X284214500Y-56400000D03*
X265214500Y-53000000D03*
X265214500Y-56550000D03*
X246214500Y-48250000D03*
X246214500Y-51800000D03*
X227214500Y-45875000D03*
X227214500Y-49425000D03*
X208214500Y-48250000D03*
X208214500Y-51800000D03*
X189207500Y-50630000D03*
X189207500Y-54180000D03*
X284214500Y-72000000D03*
X284214500Y-75550000D03*
X265214500Y-72000000D03*
X265214500Y-75550000D03*
X246214500Y-67250000D03*
X246214500Y-70800000D03*
X227214500Y-64875000D03*
X227214500Y-68425000D03*
X208214500Y-67250000D03*
X208214500Y-70800000D03*
X189207500Y-69630000D03*
X189207500Y-73180000D03*
X217714500Y-86860000D03*
X217714500Y-90410000D03*
X199664500Y-86875000D03*
X199664500Y-90425000D03*
X196814500Y-86875000D03*
X196814500Y-90425000D03*
D23*
X50307500Y-35105000D03*
X51107500Y-26505000D03*
X123607500Y-54205000D03*
X124607500Y-69005000D03*
X69382500Y-61305000D03*
X69382500Y-68405000D03*
X126493737Y-86382353D03*
X124807500Y-70805000D03*
X52619500Y-57270000D03*
X68939000Y-50539000D03*
X95799500Y-93084000D03*
X129772000Y-101212000D03*
X124556500Y-39562000D03*
X109210700Y-36340400D03*
X41501490Y-61944010D03*
X67669000Y-55809500D03*
X109007500Y-57079500D03*
X128627500Y-72337000D03*
X122723500Y-55809500D03*
X132670600Y-36820000D03*
X13007500Y-35205000D03*
X13007500Y-50205000D03*
X13007500Y-54205000D03*
X13007500Y-69205000D03*
X13007500Y-66705000D03*
X32007500Y-35205000D03*
X32107500Y-69205000D03*
X31707500Y-54405000D03*
X31964840Y-50194907D03*
X32796949Y-65894449D03*
X51007500Y-30505000D03*
X51007500Y-45505000D03*
X51007500Y-49505000D03*
X51007500Y-64505000D03*
X52577078Y-61174578D03*
X70007500Y-28105000D03*
X70007500Y-43105000D03*
X70007500Y-47105000D03*
X70007500Y-62105000D03*
X70407500Y-59705000D03*
X70007500Y-65705000D03*
X79507500Y-84305000D03*
X89007500Y-30505000D03*
X89007500Y-45505000D03*
X89007500Y-49505000D03*
X89007500Y-64505000D03*
X89407500Y-60305000D03*
X89007500Y-68505000D03*
X100007500Y-85205000D03*
X108007500Y-32805000D03*
X108007500Y-47905000D03*
X108007500Y-51805000D03*
X108007500Y-66805000D03*
X108407504Y-62805000D03*
X108007500Y-70805000D03*
X122607500Y-99005000D03*
X127232000Y-65652000D03*
X131169000Y-76955000D03*
X173357500Y-46265000D03*
X171063762Y-31389024D03*
X175232500Y-58415010D03*
X175232500Y-62500000D03*
X172537500Y-58715000D03*
X167110558Y-85628058D03*
X166411500Y-77717000D03*
X269607500Y-35205000D03*
X269507500Y-69305000D03*
X269617500Y-54555000D03*
X269592510Y-50205000D03*
X269547500Y-66550000D03*
X250507500Y-35105000D03*
X250507500Y-50305000D03*
X250507500Y-54205000D03*
X250507500Y-69205000D03*
X249997500Y-64100010D03*
X231507500Y-30305000D03*
X231507500Y-45505000D03*
X231607500Y-49505000D03*
X231607500Y-64505000D03*
X231234449Y-58513051D03*
X212507500Y-28005000D03*
X212507500Y-43105000D03*
X212507500Y-47105000D03*
X212507500Y-62205000D03*
X203087500Y-84335000D03*
X212557500Y-65985000D03*
X212107500Y-59020000D03*
X193507500Y-30405000D03*
X193507500Y-45505000D03*
X193507500Y-49305000D03*
X193507500Y-64505000D03*
X193517500Y-68325000D03*
X181187500Y-88895000D03*
X193137500Y-61875000D03*
X174507500Y-32805000D03*
X174507500Y-47805000D03*
X174607500Y-51905000D03*
X174507500Y-66905000D03*
X174417500Y-70675000D03*
X166887500Y-86675000D03*
X174297500Y-63015000D03*
X179238500Y-101466000D03*
X184064500Y-101466000D03*
X176046298Y-64001000D03*
X187239500Y-59175000D03*
X195494500Y-57778000D03*
X210353500Y-56635000D03*
X232959500Y-56635000D03*
X244008500Y-57651000D03*
X159924500Y-75625000D03*
X164530000Y-73549500D03*
X178864500Y-55118000D03*
X191938500Y-54349000D03*
X197864500Y-53122000D03*
X210353500Y-52063000D03*
X137582500Y-84829000D03*
X17357500Y-42709000D03*
X15154500Y-60572000D03*
X119795500Y-75805000D03*
X120564500Y-56825500D03*
X176475500Y-39205000D03*
X176317500Y-58159000D03*
X159299500Y-93973000D03*
X178857500Y-78860000D03*
X165903070Y-99687570D03*
X186604500Y-98799000D03*
X279364500Y-76370000D03*
X281727500Y-59175000D03*
X138204800Y-50018300D03*
D24*
X122707500Y-34667319D02*
X122707500Y-35180000D01*
X142907500Y-30505000D02*
X126869819Y-30505000D01*
X126869819Y-30505000D02*
X122707500Y-34667319D01*
X144207500Y-31805000D02*
X142907500Y-30505000D01*
X144207500Y-45398400D02*
X144207500Y-31805000D01*
X142423900Y-47182000D02*
X144207500Y-45398400D01*
X42307500Y-36505000D02*
X43357500Y-37555000D01*
X42307500Y-34805000D02*
X42307500Y-36505000D01*
X38007500Y-30505000D02*
X42307500Y-34805000D01*
X29607500Y-31905000D02*
X31007500Y-30505000D01*
X29607500Y-36428875D02*
X29607500Y-31905000D01*
X43357500Y-37555000D02*
X46734500Y-37555000D01*
X31007500Y-30505000D02*
X38007500Y-30505000D01*
X28484500Y-37551875D02*
X29607500Y-36428875D01*
X27734500Y-37551875D02*
X28484500Y-37551875D01*
X47857500Y-37555000D02*
X50307500Y-35105000D01*
X46734500Y-37555000D02*
X47857500Y-37555000D01*
X62257500Y-32555000D02*
X61107500Y-31405000D01*
X61107500Y-31405000D02*
X61107500Y-29705000D01*
X65707500Y-32555000D02*
X62257500Y-32555000D01*
X61107500Y-29705000D02*
X57907500Y-26505000D01*
X57907500Y-26505000D02*
X51531764Y-26505000D01*
X51531764Y-26505000D02*
X51107500Y-26505000D01*
X66457500Y-32555000D02*
X67707500Y-31305000D01*
X65707500Y-32555000D02*
X66457500Y-32555000D01*
X67707500Y-31305000D02*
X67707500Y-24705000D01*
X67707500Y-24705000D02*
X69107500Y-23305000D01*
X69107500Y-23305000D02*
X75907500Y-23305000D01*
X75907500Y-23305000D02*
X80207500Y-27605000D01*
X80207500Y-27605000D02*
X80207500Y-29205000D01*
X83957500Y-30430000D02*
X84707500Y-30430000D01*
X80220686Y-29205000D02*
X81445686Y-30430000D01*
X81445686Y-30430000D02*
X83957500Y-30430000D01*
X80207500Y-29205000D02*
X80220686Y-29205000D01*
X85457500Y-30430000D02*
X86607500Y-29280000D01*
X84707500Y-30430000D02*
X85457500Y-30430000D01*
X86607500Y-29280000D02*
X86607500Y-26805000D01*
X86607500Y-26805000D02*
X87707500Y-25705000D01*
X87707500Y-25705000D02*
X94907500Y-25705000D01*
X94907500Y-25705000D02*
X99307500Y-30105000D01*
X99307500Y-30105000D02*
X99307500Y-31605000D01*
X100507500Y-32805000D02*
X103707500Y-32805000D01*
X99307500Y-31605000D02*
X100507500Y-32805000D01*
X121957500Y-35180000D02*
X122707500Y-35180000D01*
X119482500Y-35180000D02*
X121957500Y-35180000D01*
X118407500Y-34105000D02*
X119482500Y-35180000D01*
X114107500Y-28105000D02*
X118407500Y-32405000D01*
X107407500Y-28105000D02*
X114107500Y-28105000D01*
X118407500Y-32405000D02*
X118407500Y-34105000D01*
X105707500Y-29805000D02*
X107407500Y-28105000D01*
X105707500Y-31505000D02*
X105707500Y-29805000D01*
X104407500Y-32805000D02*
X105707500Y-31505000D01*
X103707500Y-32805000D02*
X104407500Y-32805000D01*
X27734500Y-32751875D02*
X27734500Y-34001875D01*
X27734500Y-32510000D02*
X27734500Y-32751875D01*
X25949500Y-30725000D02*
X27734500Y-32510000D01*
X25949500Y-30700000D02*
X25949500Y-30725000D01*
X122707500Y-54180000D02*
X122832500Y-54180000D01*
X45984500Y-56555000D02*
X46734500Y-56555000D01*
X42207500Y-55305000D02*
X43457500Y-56555000D01*
X42207500Y-53805000D02*
X42207500Y-55305000D01*
X37732501Y-49330001D02*
X42207500Y-53805000D01*
X43457500Y-56555000D02*
X45984500Y-56555000D01*
X31282499Y-49330001D02*
X37732501Y-49330001D01*
X29607500Y-51005000D02*
X31282499Y-49330001D01*
X29607500Y-55428875D02*
X29607500Y-51005000D01*
X28484500Y-56551875D02*
X29607500Y-55428875D01*
X27734500Y-56551875D02*
X28484500Y-56551875D01*
X60807500Y-50305000D02*
X62307500Y-51805000D01*
X48707500Y-46105000D02*
X49932501Y-44879999D01*
X62307500Y-51805000D02*
X65707500Y-51805000D01*
X49932501Y-44879999D02*
X57332501Y-44879999D01*
X60807500Y-48354998D02*
X60807500Y-50305000D01*
X48707500Y-55332000D02*
X48707500Y-46105000D01*
X47484500Y-56555000D02*
X48707500Y-55332000D01*
X57332501Y-44879999D02*
X60807500Y-48354998D01*
X46734500Y-56555000D02*
X47484500Y-56555000D01*
X81432500Y-49430000D02*
X84707500Y-49430000D01*
X80207500Y-46305000D02*
X80207500Y-48205000D01*
X76207500Y-42305000D02*
X80207500Y-46305000D01*
X69307500Y-42305000D02*
X76207500Y-42305000D01*
X67607500Y-44005000D02*
X69307500Y-42305000D01*
X80207500Y-48205000D02*
X81432500Y-49430000D01*
X67607500Y-50655000D02*
X67607500Y-44005000D01*
X66457500Y-51805000D02*
X67607500Y-50655000D01*
X65707500Y-51805000D02*
X66457500Y-51805000D01*
X85457500Y-49430000D02*
X86507500Y-48380000D01*
X84707500Y-49430000D02*
X85457500Y-49430000D01*
X86507500Y-48380000D02*
X86507500Y-45705000D01*
X86507500Y-45705000D02*
X87707500Y-44505000D01*
X87707500Y-44505000D02*
X94907500Y-44505000D01*
X94907500Y-44505000D02*
X99007500Y-48605000D01*
X99007500Y-48605000D02*
X99007500Y-50905000D01*
X99907500Y-51805000D02*
X103707500Y-51805000D01*
X99007500Y-50905000D02*
X99907500Y-51805000D01*
X118207500Y-51505000D02*
X118207500Y-53205000D01*
X118207500Y-53205000D02*
X119182500Y-54180000D01*
X113907500Y-47205000D02*
X118207500Y-51505000D01*
X107007500Y-47205000D02*
X113907500Y-47205000D01*
X105607500Y-48605000D02*
X107007500Y-47205000D01*
X105607500Y-50655000D02*
X105607500Y-48605000D01*
X104457500Y-51805000D02*
X105607500Y-50655000D01*
X119182500Y-54180000D02*
X122707500Y-54180000D01*
X103707500Y-51805000D02*
X104457500Y-51805000D01*
X122707500Y-54180000D02*
X123582500Y-54180000D01*
X123582500Y-54180000D02*
X123607500Y-54205000D01*
X125007500Y-69005000D02*
X124607500Y-69005000D01*
X130007500Y-64005000D02*
X125007500Y-69005000D01*
X142423900Y-49788600D02*
X140407500Y-51805000D01*
X140407500Y-61505000D02*
X137907500Y-64005000D01*
X140407500Y-51805000D02*
X140407500Y-61505000D01*
X137907500Y-64005000D02*
X130007500Y-64005000D01*
X142423900Y-49722000D02*
X142423900Y-49788600D01*
X46734500Y-32520000D02*
X46734500Y-34005000D01*
X44949500Y-30735000D02*
X46734500Y-32520000D01*
X44949500Y-30700000D02*
X44949500Y-30735000D01*
D25*
X141661901Y-53023999D02*
X142423900Y-52262000D01*
X140859511Y-53826389D02*
X141661901Y-53023999D01*
X140859511Y-61818989D02*
X140859511Y-53826389D01*
X138173500Y-64505000D02*
X140859511Y-61818989D01*
X130180900Y-64505000D02*
X138173500Y-64505000D01*
X122707500Y-71978400D02*
X130180900Y-64505000D01*
X122707500Y-73105000D02*
X122707500Y-71978400D01*
D24*
X43357500Y-75555000D02*
X46057500Y-75555000D01*
X41907500Y-72305000D02*
X41907500Y-74105000D01*
X37807500Y-68205000D02*
X41907500Y-72305000D01*
X29707500Y-70205000D02*
X31707500Y-68205000D01*
X41907500Y-74105000D02*
X43357500Y-75555000D01*
X31707500Y-68205000D02*
X37807500Y-68205000D01*
X29707500Y-73205000D02*
X29707500Y-70205000D01*
X46057500Y-75555000D02*
X46734500Y-75555000D01*
X27734500Y-75178000D02*
X29707500Y-73205000D01*
X27734500Y-75551875D02*
X27734500Y-75178000D01*
X84707500Y-68430000D02*
X81632500Y-68430000D01*
X81632500Y-68430000D02*
X80107500Y-66905000D01*
X80107500Y-66905000D02*
X80107500Y-65405000D01*
X80107500Y-65405000D02*
X75407500Y-60705000D01*
X69982500Y-60705000D02*
X69382500Y-61305000D01*
X75407500Y-60705000D02*
X69982500Y-60705000D01*
X69382500Y-68430000D02*
X67007500Y-70805000D01*
X67007500Y-70805000D02*
X65707500Y-70805000D01*
X69382500Y-68405000D02*
X69382500Y-68430000D01*
X100707500Y-70805000D02*
X103707500Y-70805000D01*
X99207500Y-69305000D02*
X100707500Y-70805000D01*
X94207500Y-62805000D02*
X99207500Y-67805000D01*
X88207500Y-62805000D02*
X94207500Y-62805000D01*
X85282500Y-68430000D02*
X86607500Y-67105000D01*
X86607500Y-64405000D02*
X88207500Y-62805000D01*
X86607500Y-67105000D02*
X86607500Y-64405000D01*
X99207500Y-67805000D02*
X99207500Y-69305000D01*
X84707500Y-68430000D02*
X85282500Y-68430000D01*
X119182500Y-73180000D02*
X122707500Y-73180000D01*
X118307500Y-70705000D02*
X118307500Y-72305000D01*
X113107500Y-65505000D02*
X118307500Y-70705000D01*
X118307500Y-72305000D02*
X119182500Y-73180000D01*
X107307500Y-65505000D02*
X113107500Y-65505000D01*
X105707500Y-69555000D02*
X105707500Y-67105000D01*
X105707500Y-67105000D02*
X107307500Y-65505000D01*
X104457500Y-70805000D02*
X105707500Y-69555000D01*
X103707500Y-70805000D02*
X104457500Y-70805000D01*
X51035578Y-63105000D02*
X56107500Y-63105000D01*
X62007500Y-70805000D02*
X64957500Y-70805000D01*
X61007500Y-68005000D02*
X61007500Y-69805000D01*
X48607500Y-65533078D02*
X51035578Y-63105000D01*
X48607500Y-74432000D02*
X48607500Y-65533078D01*
X46734500Y-75555000D02*
X47484500Y-75555000D01*
X47484500Y-75555000D02*
X48607500Y-74432000D01*
X56107500Y-63105000D02*
X61007500Y-68005000D01*
X61007500Y-69805000D02*
X62007500Y-70805000D01*
X64957500Y-70805000D02*
X65707500Y-70805000D01*
X65707500Y-27623000D02*
X65707500Y-29005000D01*
X64034500Y-25950000D02*
X65707500Y-27623000D01*
X63949500Y-25950000D02*
X64034500Y-25950000D01*
X95164500Y-90540000D02*
X98007500Y-90540000D01*
D25*
X141313522Y-62007046D02*
X138315568Y-65005000D01*
X138315568Y-65005000D02*
X130607500Y-65005000D01*
X141313522Y-55912378D02*
X141313522Y-62007046D01*
X142423900Y-54802000D02*
X141313522Y-55912378D01*
D24*
X130357500Y-65005000D02*
X130607500Y-65005000D01*
X124807500Y-70555000D02*
X130357500Y-65005000D01*
X124807500Y-70805000D02*
X124807500Y-70555000D01*
X126193738Y-87218762D02*
X126193738Y-86682352D01*
X111493900Y-90154990D02*
X114557490Y-90154990D01*
X120957511Y-92454989D02*
X126193738Y-87218762D01*
X97257500Y-90540000D02*
X96807500Y-90090000D01*
X116857489Y-92454989D02*
X120957511Y-92454989D01*
X114557490Y-90154990D02*
X116857489Y-92454989D01*
X98993920Y-83754989D02*
X105093900Y-83754989D01*
X126193738Y-86682352D02*
X126493737Y-86382353D01*
X105093900Y-83754989D02*
X111493900Y-90154990D01*
X96807500Y-85941410D02*
X98993920Y-83754989D01*
X96807500Y-90090000D02*
X96807500Y-85941410D01*
X98007500Y-90540000D02*
X97257500Y-90540000D01*
X95207500Y-90540000D02*
X95164500Y-90540000D01*
X90842500Y-90540000D02*
X95207500Y-90540000D01*
X89707500Y-87405000D02*
X89707500Y-89405000D01*
X89707500Y-89405000D02*
X90842500Y-90540000D01*
X83707500Y-81405000D02*
X89707500Y-87405000D01*
X77407500Y-82405000D02*
X78407500Y-81405000D01*
X76157500Y-89295000D02*
X77407500Y-88045000D01*
X77407500Y-88045000D02*
X77407500Y-82405000D01*
X78407500Y-81405000D02*
X83707500Y-81405000D01*
X76157500Y-90545000D02*
X76157500Y-89295000D01*
X82979500Y-23575000D02*
X84707500Y-25303000D01*
X84707500Y-25303000D02*
X84707500Y-26880000D01*
X82949500Y-23575000D02*
X82979500Y-23575000D01*
X103707500Y-27753000D02*
X103707500Y-29255000D01*
X101949500Y-25995000D02*
X103707500Y-27753000D01*
X101949500Y-25950000D02*
X101949500Y-25995000D01*
X122707500Y-30103000D02*
X122707500Y-31630000D01*
X120949500Y-28345000D02*
X122707500Y-30103000D01*
X120949500Y-28325000D02*
X120949500Y-28345000D01*
X27734500Y-51440000D02*
X27734500Y-53001875D01*
X25994500Y-49700000D02*
X27734500Y-51440000D01*
X25949500Y-49700000D02*
X25994500Y-49700000D01*
X46734500Y-51450000D02*
X46734500Y-53005000D01*
X44984500Y-49700000D02*
X46734500Y-51450000D01*
X44949500Y-49700000D02*
X44984500Y-49700000D01*
X64044500Y-44950000D02*
X65707500Y-46613000D01*
X63949500Y-44950000D02*
X64044500Y-44950000D01*
X65707500Y-46613000D02*
X65707500Y-48255000D01*
X82999500Y-42575000D02*
X84707500Y-44283000D01*
X84707500Y-44283000D02*
X84707500Y-45880000D01*
X82949500Y-42575000D02*
X82999500Y-42575000D01*
X101949500Y-45045000D02*
X103707500Y-46803000D01*
X101949500Y-44950000D02*
X101949500Y-45045000D01*
X103707500Y-46803000D02*
X103707500Y-48255000D01*
X120949500Y-47447000D02*
X122707500Y-49205000D01*
X122707500Y-49205000D02*
X122707500Y-50630000D01*
X120949500Y-47325000D02*
X120949500Y-47447000D01*
X27734500Y-70500000D02*
X27734500Y-72001875D01*
X25949500Y-68715000D02*
X27734500Y-70500000D01*
X25949500Y-68700000D02*
X25949500Y-68715000D01*
X45014500Y-68700000D02*
X46734500Y-70420000D01*
X46734500Y-70420000D02*
X46734500Y-72005000D01*
X44949500Y-68700000D02*
X45014500Y-68700000D01*
X65707500Y-65713000D02*
X65707500Y-67255000D01*
X63949500Y-63955000D02*
X65707500Y-65713000D01*
X63949500Y-63950000D02*
X63949500Y-63955000D01*
X84707500Y-63313000D02*
X84707500Y-64880000D01*
X82969500Y-61575000D02*
X84707500Y-63313000D01*
X82949500Y-61575000D02*
X82969500Y-61575000D01*
X103707500Y-65753000D02*
X103707500Y-67255000D01*
X101949500Y-63995000D02*
X103707500Y-65753000D01*
X101949500Y-63950000D02*
X101949500Y-63995000D01*
X122707500Y-68133000D02*
X122707500Y-69630000D01*
X120949500Y-66375000D02*
X122707500Y-68133000D01*
X120949500Y-66325000D02*
X120949500Y-66375000D01*
X92449500Y-83547000D02*
X92449500Y-83575000D01*
X89857490Y-80954990D02*
X92449500Y-83547000D01*
X78157510Y-80954990D02*
X89857490Y-80954990D01*
X76157500Y-82955000D02*
X78157510Y-80954990D01*
X76157500Y-86995000D02*
X76157500Y-82955000D01*
X114565239Y-86716023D02*
X114565239Y-88010118D01*
X95164500Y-86948000D02*
X98907500Y-83205000D01*
X98907500Y-83205000D02*
X111054216Y-83205000D01*
X95164500Y-86990000D02*
X95164500Y-86948000D01*
X111054216Y-83205000D02*
X114565239Y-86716023D01*
X126556820Y-87555680D02*
X128379091Y-87555680D01*
X121207500Y-92905000D02*
X126556820Y-87555680D01*
X116607500Y-92905000D02*
X121207500Y-92905000D01*
X114307501Y-90605001D02*
X116607500Y-92905000D01*
X98007500Y-86990000D02*
X98007500Y-85377820D01*
X99180320Y-84205000D02*
X104907500Y-84205000D01*
X111307500Y-90605001D02*
X114307501Y-90605001D01*
X98007500Y-85377820D02*
X99180320Y-84205000D01*
X104907500Y-84205000D02*
X111307500Y-90605001D01*
D26*
X139883900Y-34482000D02*
X142423900Y-37022000D01*
X127203900Y-34482000D02*
X139883900Y-34482000D01*
D27*
X132837500Y-54860000D02*
X131317500Y-54860000D01*
X131317500Y-54860000D02*
X129337500Y-52880000D01*
X129337500Y-36615600D02*
X127203900Y-34482000D01*
X129337500Y-52880000D02*
X129337500Y-36615600D01*
D26*
X106825421Y-39161499D02*
X104459201Y-39161499D01*
X108804922Y-41141000D02*
X106825421Y-39161499D01*
X120544900Y-41141000D02*
X108804922Y-41141000D01*
X31633822Y-43452400D02*
X29761422Y-41580000D01*
X49520700Y-40556800D02*
X46625100Y-43452400D01*
X41857500Y-41580000D02*
X43660500Y-41580000D01*
X43660500Y-41580000D02*
X45532900Y-43452400D01*
X45532900Y-43452400D02*
X31633822Y-43452400D01*
X46625100Y-43452400D02*
X45532900Y-43452400D01*
X60857500Y-38897400D02*
X59198100Y-40556800D01*
X60857500Y-36830000D02*
X60857500Y-38897400D01*
X59198100Y-40556800D02*
X49520700Y-40556800D01*
X79857500Y-37822800D02*
X82591500Y-40556800D01*
X79857500Y-34455000D02*
X79857500Y-37822800D01*
X82591500Y-40556800D02*
X59198100Y-40556800D01*
X103063900Y-40556800D02*
X82591500Y-40556800D01*
X100657900Y-36830000D02*
X103724300Y-39896400D01*
X98857500Y-36830000D02*
X100657900Y-36830000D01*
X103724300Y-39896400D02*
X103063900Y-40556800D01*
X104459201Y-39161499D02*
X103724300Y-39896400D01*
X121320900Y-39205000D02*
X121900900Y-39785000D01*
X117857500Y-39205000D02*
X121320900Y-39205000D01*
X121900900Y-39785000D02*
X120544900Y-41141000D01*
X127203900Y-34482000D02*
X121900900Y-39785000D01*
X120544900Y-41141000D02*
X120544900Y-41141000D01*
X17357500Y-58553081D02*
X18094591Y-57815990D01*
X17357500Y-59180000D02*
X17357500Y-58553081D01*
X49279510Y-57815990D02*
X52073510Y-57815990D01*
X52073510Y-57815990D02*
X52619500Y-57270000D01*
X52619500Y-57270000D02*
X52619500Y-57270000D01*
X108618490Y-53065990D02*
X112357500Y-56805000D01*
X80508702Y-50539000D02*
X83035692Y-53065990D01*
X92795020Y-54430000D02*
X91431010Y-53065990D01*
X93357500Y-54430000D02*
X92795020Y-54430000D01*
X91431010Y-53065990D02*
X108618490Y-53065990D01*
X83035692Y-53065990D02*
X91431010Y-53065990D01*
X73058500Y-52055000D02*
X71542500Y-50539000D01*
X74357500Y-52055000D02*
X73058500Y-52055000D01*
X71542500Y-50539000D02*
X80508702Y-50539000D01*
X68939000Y-50539000D02*
X71542500Y-50539000D01*
X53999500Y-54430000D02*
X55357500Y-54430000D01*
X52619500Y-55810000D02*
X53999500Y-54430000D01*
X52619500Y-57270000D02*
X52619500Y-55810000D01*
X34971500Y-59180000D02*
X33607490Y-57815990D01*
X36357500Y-59180000D02*
X34971500Y-59180000D01*
X33607490Y-57815990D02*
X49279510Y-57815990D01*
X22857500Y-80588000D02*
X23923500Y-81654000D01*
X22857500Y-79580000D02*
X22857500Y-80588000D01*
X51413000Y-81654000D02*
X56556500Y-76510500D01*
X70463000Y-76510500D02*
X72495000Y-74478500D01*
X86274500Y-74478500D02*
X88497000Y-76701000D01*
X117857500Y-77831919D02*
X117857500Y-77205000D01*
X117120409Y-78569010D02*
X117857500Y-77831919D01*
X103610000Y-76701000D02*
X105478010Y-78569010D01*
X99961000Y-74830000D02*
X101832000Y-76701000D01*
X98857500Y-74830000D02*
X99961000Y-74830000D01*
X101832000Y-76701000D02*
X103610000Y-76701000D01*
X88497000Y-76701000D02*
X101832000Y-76701000D01*
X82473000Y-72455000D02*
X84496500Y-74478500D01*
X84496500Y-74478500D02*
X86274500Y-74478500D01*
X79857500Y-72455000D02*
X82473000Y-72455000D01*
X72495000Y-74478500D02*
X84496500Y-74478500D01*
X63004000Y-74830000D02*
X64684500Y-76510500D01*
X60857500Y-74830000D02*
X63004000Y-74830000D01*
X64684500Y-76510500D02*
X70463000Y-76510500D01*
X56556500Y-76510500D02*
X64684500Y-76510500D01*
X44640000Y-79580000D02*
X46714000Y-81654000D01*
X41857500Y-79580000D02*
X44640000Y-79580000D01*
X46714000Y-81654000D02*
X51413000Y-81654000D01*
X23923500Y-81654000D02*
X46714000Y-81654000D01*
X97376160Y-94660660D02*
X103589359Y-94660660D01*
X84594591Y-91690990D02*
X94406490Y-91690990D01*
X83857500Y-92428081D02*
X84594591Y-91690990D01*
X83857500Y-93055000D02*
X83857500Y-92428081D01*
X94406490Y-91690990D02*
X95799500Y-93084000D01*
X95799500Y-93084000D02*
X97376160Y-94660660D01*
X130927252Y-101212000D02*
X132121482Y-100017770D01*
X129772000Y-101212000D02*
X130927252Y-101212000D01*
X105478010Y-78569010D02*
X117120409Y-78569010D01*
X138568500Y-68202148D02*
X138568500Y-67028000D01*
X128201638Y-78569010D02*
X138568500Y-68202148D01*
X117120409Y-78569010D02*
X128201638Y-78569010D01*
X67986500Y-79812500D02*
X64684500Y-76510500D01*
X67986500Y-82755189D02*
X67986500Y-79812500D01*
X74508859Y-91699001D02*
X67986500Y-82755189D01*
X84586580Y-91699001D02*
X74508859Y-91699001D01*
X84594591Y-91690990D02*
X84586580Y-91699001D01*
X27415500Y-41580000D02*
X26399500Y-41580000D01*
X29761422Y-41580000D02*
X27415500Y-41580000D01*
X27415500Y-41580000D02*
X22857500Y-41580000D01*
X22611501Y-56226499D02*
X21022010Y-57815990D01*
X22611501Y-53578079D02*
X22611501Y-56226499D01*
X20693499Y-51660077D02*
X22611501Y-53578079D01*
X20693499Y-47286001D02*
X20693499Y-51660077D01*
X26399500Y-41580000D02*
X20693499Y-47286001D01*
X21022010Y-57815990D02*
X33607490Y-57815990D01*
X18094591Y-57815990D02*
X21022010Y-57815990D01*
D27*
X133834500Y-76392000D02*
X134234500Y-76392000D01*
X135983265Y-78540765D02*
X133834500Y-76392000D01*
X135983265Y-80553199D02*
X135983265Y-78540765D01*
D26*
X127203900Y-39562000D02*
X124556500Y-39562000D01*
X124556500Y-39562000D02*
X124556500Y-39562000D01*
X17357500Y-39172000D02*
X17357500Y-40180000D01*
X17713510Y-38815990D02*
X17357500Y-39172000D01*
X52462432Y-34065990D02*
X47712432Y-38815990D01*
X66213712Y-34065990D02*
X52462432Y-34065990D01*
X68588712Y-31690990D02*
X66213712Y-34065990D01*
X80660692Y-31690990D02*
X68588712Y-31690990D01*
X83035692Y-34065990D02*
X80660692Y-31690990D01*
X36357500Y-40180000D02*
X34157900Y-40180000D01*
X32793890Y-38815990D02*
X17713510Y-38815990D01*
X34157900Y-40180000D02*
X32793890Y-38815990D01*
X47712432Y-38815990D02*
X32793890Y-38815990D01*
X53826442Y-35430000D02*
X52462432Y-34065990D01*
X55357500Y-35430000D02*
X53826442Y-35430000D01*
X69952722Y-33055000D02*
X68588712Y-31690990D01*
X74357500Y-33055000D02*
X69952722Y-33055000D01*
X87370700Y-35430000D02*
X86006690Y-34065990D01*
X93357500Y-35430000D02*
X87370700Y-35430000D01*
X86006690Y-34065990D02*
X83035692Y-34065990D01*
X106936290Y-34065990D02*
X86006690Y-34065990D01*
X112357500Y-37805000D02*
X108414700Y-37805000D01*
X107674000Y-37064300D02*
X107674000Y-34803700D01*
X108414700Y-37805000D02*
X107674000Y-37064300D01*
X107674000Y-34803700D02*
X106936290Y-34065990D01*
X109210700Y-36340400D02*
X107674000Y-34803700D01*
X41857500Y-61588000D02*
X41857500Y-60580000D01*
X37094591Y-61944010D02*
X41501490Y-61944010D01*
X41501490Y-61944010D02*
X41857500Y-61588000D01*
X36684582Y-61534001D02*
X37094591Y-61944010D01*
X23811501Y-61534001D02*
X36684582Y-61534001D01*
X22857500Y-60580000D02*
X23811501Y-61534001D01*
X41501490Y-61944010D02*
X41501490Y-61944010D01*
X60878000Y-55809500D02*
X60857500Y-55830000D01*
X67669000Y-55809500D02*
X60878000Y-55809500D01*
X67669000Y-55809500D02*
X69425458Y-57565959D01*
X100943082Y-55830000D02*
X102679041Y-57565959D01*
X98857500Y-55830000D02*
X100943082Y-55830000D01*
X102679041Y-57565959D02*
X105917541Y-57565959D01*
X79857500Y-53921418D02*
X83502041Y-57565959D01*
X79857500Y-53455000D02*
X79857500Y-53921418D01*
X83502041Y-57565959D02*
X102679041Y-57565959D01*
X69425458Y-57565959D02*
X83502041Y-57565959D01*
X105917541Y-57565959D02*
X108521041Y-57565959D01*
X108521041Y-57565959D02*
X109007500Y-57079500D01*
X109007500Y-57079500D02*
X109007500Y-57079500D01*
X17357500Y-77172000D02*
X17820499Y-76709001D01*
X17357500Y-78180000D02*
X17357500Y-77172000D01*
X53952510Y-72065990D02*
X69954510Y-72065990D01*
X72329510Y-69690990D02*
X88725990Y-69690990D01*
X69954510Y-72065990D02*
X72329510Y-69690990D01*
X91100990Y-72065990D02*
X108618490Y-72065990D01*
X88725990Y-69690990D02*
X91100990Y-72065990D01*
X92465000Y-73430000D02*
X91100990Y-72065990D01*
X93357500Y-73430000D02*
X92465000Y-73430000D01*
X73693520Y-71055000D02*
X72329510Y-69690990D01*
X74357500Y-71055000D02*
X73693520Y-71055000D01*
X55357500Y-73430000D02*
X52588500Y-73430000D01*
X52556000Y-73462500D02*
X53952510Y-72065990D01*
X52588500Y-73430000D02*
X52556000Y-73462500D01*
X49309499Y-76709001D02*
X52556000Y-73462500D01*
X33952998Y-78180000D02*
X32481999Y-76709001D01*
X36357500Y-78180000D02*
X33952998Y-78180000D01*
X32481999Y-76709001D02*
X49309499Y-76709001D01*
X17820499Y-76709001D02*
X32481999Y-76709001D01*
X136083918Y-95954630D02*
X138535000Y-93503548D01*
X138535000Y-83104934D02*
X135983265Y-80553199D01*
X138535000Y-93503548D02*
X138535000Y-83104934D01*
X99616158Y-99942000D02*
X94129158Y-94455000D01*
X121307992Y-102653992D02*
X118596000Y-99942000D01*
X133033901Y-102653992D02*
X121307992Y-102653992D01*
X138535000Y-97152893D02*
X133033901Y-102653992D01*
X94129158Y-94455000D02*
X89357500Y-94455000D01*
X138535000Y-93503548D02*
X138535000Y-97152893D01*
X106912000Y-99756269D02*
X106912000Y-99942000D01*
X108278841Y-97857340D02*
X108278841Y-98389428D01*
X106912000Y-99942000D02*
X99616158Y-99942000D01*
X108278841Y-98389428D02*
X106912000Y-99756269D01*
X118596000Y-99942000D02*
X106912000Y-99942000D01*
X49309499Y-76709001D02*
X49309499Y-76709001D01*
X128627500Y-72337000D02*
X126135000Y-72337000D01*
X110993490Y-74440990D02*
X110622500Y-74070000D01*
X126135000Y-72337000D02*
X124031010Y-74440990D01*
X110622500Y-74070000D02*
X112357500Y-75805000D01*
X124031010Y-74440990D02*
X110993490Y-74440990D01*
X108618490Y-72065990D02*
X110622500Y-74070000D01*
X120328000Y-58205000D02*
X122723500Y-55809500D01*
X117857500Y-58205000D02*
X120328000Y-58205000D01*
X134812500Y-36820000D02*
X132670600Y-36820000D01*
X132670600Y-36820000D02*
X132670600Y-36820000D01*
D24*
X13022500Y-35190000D02*
X13007500Y-35205000D01*
X13022500Y-33240000D02*
X13022500Y-35190000D01*
X13007500Y-52225000D02*
X13022500Y-52240000D01*
X13007500Y-50205000D02*
X13007500Y-52225000D01*
X13022500Y-54190000D02*
X13007500Y-54205000D01*
X13022500Y-52240000D02*
X13022500Y-54190000D01*
X13007500Y-71225000D02*
X13022500Y-71240000D01*
X13007500Y-69205000D02*
X13007500Y-71225000D01*
D25*
X124234502Y-45071398D02*
X124234502Y-55267658D01*
X124234502Y-55267658D02*
X120948173Y-58553987D01*
X127203900Y-42102000D02*
X124234502Y-45071398D01*
D24*
X13431764Y-66705000D02*
X13007500Y-66705000D01*
X27707500Y-66705000D02*
X13431764Y-66705000D01*
X28022500Y-67020000D02*
X27707500Y-66705000D01*
X30787500Y-67020000D02*
X28022500Y-67020000D01*
X34002500Y-63805000D02*
X30787500Y-67020000D01*
X48420688Y-63805000D02*
X34002500Y-63805000D01*
X54080720Y-58144968D02*
X48420688Y-63805000D01*
X109570843Y-58144967D02*
X54080720Y-58144968D01*
X111689829Y-60263953D02*
X109570843Y-58144967D01*
X119248547Y-60263953D02*
X111689829Y-60263953D01*
X120907500Y-58605000D02*
X119248547Y-60263953D01*
X32022500Y-35190000D02*
X32007500Y-35205000D01*
X32022500Y-33240000D02*
X32022500Y-35190000D01*
X32107500Y-71155000D02*
X32022500Y-71240000D01*
X32107500Y-69205000D02*
X32107500Y-71155000D01*
X31707500Y-54405000D02*
X32022500Y-54190000D01*
X32022500Y-54190000D02*
X32022500Y-52240000D01*
X32022500Y-50252567D02*
X31964840Y-50194907D01*
X32022500Y-52240000D02*
X32022500Y-50252567D01*
D25*
X54267950Y-58596978D02*
X48559928Y-64305000D01*
X48559928Y-64305000D02*
X45807500Y-64305000D01*
X124688510Y-47157390D02*
X124688510Y-55515201D01*
X127203900Y-44642000D02*
X124688510Y-47157390D01*
X111502599Y-60715963D02*
X109383614Y-58596978D01*
X124688510Y-55515201D02*
X119487747Y-60715964D01*
X119487747Y-60715964D02*
X111502599Y-60715963D01*
X109383614Y-58596978D02*
X54267950Y-58596978D01*
D24*
X34386398Y-64305000D02*
X33096948Y-65594450D01*
X45807500Y-64305000D02*
X34386398Y-64305000D01*
X33096948Y-65594450D02*
X32796949Y-65894449D01*
X51022500Y-30490000D02*
X51007500Y-30505000D01*
X51022500Y-28490000D02*
X51022500Y-30490000D01*
X51007500Y-47475000D02*
X51022500Y-47490000D01*
X51007500Y-45505000D02*
X51007500Y-47475000D01*
X51022500Y-49490000D02*
X51007500Y-49505000D01*
X51022500Y-47490000D02*
X51022500Y-49490000D01*
X51007500Y-66475000D02*
X51022500Y-66490000D01*
X51007500Y-64505000D02*
X51007500Y-66475000D01*
D25*
X54700667Y-59050989D02*
X52877077Y-60874579D01*
X125142521Y-49243379D02*
X125142521Y-55703259D01*
X127203900Y-47182000D02*
X125142521Y-49243379D01*
X119675805Y-61169975D02*
X111314543Y-61169975D01*
X111314543Y-61169975D02*
X109195557Y-59050989D01*
X109195557Y-59050989D02*
X54700667Y-59050989D01*
X125142521Y-55703259D02*
X119675805Y-61169975D01*
X52877077Y-60874579D02*
X52577078Y-61174578D01*
D24*
X70022500Y-28090000D02*
X70007500Y-28105000D01*
X70022500Y-26115000D02*
X70022500Y-28090000D01*
X70007500Y-45100000D02*
X70022500Y-45115000D01*
X70007500Y-43105000D02*
X70007500Y-45100000D01*
X70022500Y-47090000D02*
X70007500Y-47105000D01*
X70022500Y-45115000D02*
X70022500Y-47090000D01*
X70007500Y-64100000D02*
X70022500Y-64115000D01*
X70007500Y-62105000D02*
X70007500Y-64100000D01*
X70022500Y-65690000D02*
X70007500Y-65705000D01*
X70022500Y-64115000D02*
X70022500Y-65690000D01*
X79507500Y-86100000D02*
X79522500Y-86115000D01*
X79507500Y-84305000D02*
X79507500Y-86100000D01*
D25*
X70831764Y-59705000D02*
X70407500Y-59705000D01*
X119863862Y-61623986D02*
X111126486Y-61623986D01*
X109007500Y-59505000D02*
X71031764Y-59505000D01*
X125596532Y-55891316D02*
X119863862Y-61623986D01*
X125596532Y-51329368D02*
X125596532Y-55891316D01*
X127203900Y-49722000D02*
X125596532Y-51329368D01*
X71031764Y-59505000D02*
X70831764Y-59705000D01*
X111126486Y-61623986D02*
X109007500Y-59505000D01*
D24*
X89022500Y-30490000D02*
X89007500Y-30505000D01*
X89022500Y-28490000D02*
X89022500Y-30490000D01*
X89007500Y-47475000D02*
X89022500Y-47490000D01*
X89007500Y-45505000D02*
X89007500Y-47475000D01*
X89022500Y-49490000D02*
X89007500Y-49505000D01*
X89022500Y-47490000D02*
X89022500Y-49490000D01*
X89007500Y-66475000D02*
X89022500Y-66490000D01*
X89007500Y-64505000D02*
X89007500Y-66475000D01*
D27*
X89022500Y-68490000D02*
X89007500Y-68505000D01*
X89022500Y-66490000D02*
X89022500Y-68490000D01*
X100307499Y-85504999D02*
X100007500Y-85205000D01*
X101807500Y-87005000D02*
X100307499Y-85504999D01*
D25*
X126441901Y-53023999D02*
X127203900Y-52262000D01*
X120024919Y-62105000D02*
X126050543Y-56079376D01*
X126050543Y-56079376D02*
X126050543Y-53415357D01*
X110907500Y-62105000D02*
X120024919Y-62105000D01*
X126050543Y-53415357D02*
X126441901Y-53023999D01*
X89407500Y-60305000D02*
X89707500Y-60005000D01*
X110907500Y-62105000D02*
X108807500Y-60005000D01*
X89707500Y-60005000D02*
X108807500Y-60005000D01*
D24*
X108022500Y-32790000D02*
X108007500Y-32805000D01*
X108022500Y-30865000D02*
X108022500Y-32790000D01*
X108007500Y-49850000D02*
X108022500Y-49865000D01*
X108007500Y-47905000D02*
X108007500Y-49850000D01*
X108022500Y-51790000D02*
X108007500Y-51805000D01*
X108022500Y-49865000D02*
X108022500Y-51790000D01*
X108007500Y-68850000D02*
X108022500Y-68865000D01*
X108007500Y-66805000D02*
X108007500Y-68850000D01*
D25*
X108607504Y-62605000D02*
X108407504Y-62805000D01*
X120195953Y-62605000D02*
X108607504Y-62605000D01*
X127203900Y-55597053D02*
X120195953Y-62605000D01*
X127203900Y-54802000D02*
X127203900Y-55597053D01*
D24*
X108022500Y-70790000D02*
X108007500Y-70805000D01*
X108022500Y-68865000D02*
X108022500Y-70790000D01*
X123931085Y-100205000D02*
X124115295Y-100020790D01*
X123707500Y-100205000D02*
X123931085Y-100205000D01*
X122607500Y-99105000D02*
X123707500Y-100205000D01*
X122607500Y-99005000D02*
X122607500Y-99105000D01*
X143677500Y-48480000D02*
X144037500Y-48840000D01*
X144037500Y-48840000D02*
X144037500Y-58268400D01*
X144037500Y-58268400D02*
X142423900Y-59882000D01*
X140807500Y-48480000D02*
X143677500Y-48480000D01*
X139782501Y-49504999D02*
X140807500Y-48480000D01*
X139782501Y-58754999D02*
X139782501Y-49504999D01*
X138607500Y-59930000D02*
X139782501Y-58754999D01*
X132847500Y-59930000D02*
X132837500Y-59940000D01*
X138607500Y-59930000D02*
X132847500Y-59930000D01*
X138607500Y-59930000D02*
X138605500Y-59930000D01*
X134980510Y-63554990D02*
X129821100Y-63554990D01*
X138605500Y-59930000D02*
X134980510Y-63554990D01*
X129821100Y-63554990D02*
X127724090Y-65652000D01*
X127724090Y-65652000D02*
X127232000Y-65652000D01*
X127232000Y-65652000D02*
X127232000Y-65652000D01*
X131169000Y-82065000D02*
X132663000Y-83559000D01*
X131169000Y-76955000D02*
X131169000Y-82065000D01*
X284214500Y-32420000D02*
X284214500Y-34000000D01*
X282489500Y-30695000D02*
X284214500Y-32420000D01*
X282456500Y-30695000D02*
X282489500Y-30695000D01*
X280682500Y-37550000D02*
X284214500Y-37550000D01*
X275557500Y-30575000D02*
X279797500Y-34815000D01*
X279797500Y-34815000D02*
X279797500Y-36665000D01*
X267117500Y-32155000D02*
X268697500Y-30575000D01*
X279797500Y-36665000D02*
X280682500Y-37550000D01*
X265964500Y-37550000D02*
X267117500Y-36397000D01*
X268697500Y-30575000D02*
X275557500Y-30575000D01*
X267117500Y-36397000D02*
X267117500Y-32155000D01*
X265214500Y-37550000D02*
X265964500Y-37550000D01*
X189957500Y-35180000D02*
X191087500Y-34050000D01*
X189207500Y-35180000D02*
X189957500Y-35180000D01*
X191087500Y-34050000D02*
X191087500Y-27345000D01*
X191087500Y-27345000D02*
X192767500Y-25665000D01*
X192767500Y-25665000D02*
X199647500Y-25665000D01*
X199647500Y-25665000D02*
X203697500Y-29715000D01*
X203697500Y-29715000D02*
X203697500Y-31415000D01*
X205082500Y-32800000D02*
X208214500Y-32800000D01*
X203697500Y-31415000D02*
X205082500Y-32800000D01*
X208964500Y-32800000D02*
X210067500Y-31697000D01*
X208214500Y-32800000D02*
X208964500Y-32800000D01*
X210067500Y-28205000D02*
X210097500Y-28175000D01*
X210067500Y-31697000D02*
X210067500Y-28205000D01*
X210097500Y-28175000D02*
X210097500Y-24435000D01*
X210097500Y-24435000D02*
X211397500Y-23135000D01*
X211397500Y-23135000D02*
X218347500Y-23135000D01*
X218347500Y-23135000D02*
X222487500Y-27275000D01*
X226464500Y-30425000D02*
X227214500Y-30425000D01*
X224197500Y-30425000D02*
X226464500Y-30425000D01*
X222487500Y-28715000D02*
X224197500Y-30425000D01*
X222487500Y-27275000D02*
X222487500Y-28715000D01*
X256917500Y-30825000D02*
X259947500Y-33855000D01*
X238453498Y-25945000D02*
X241747500Y-29239002D01*
X241747500Y-31915000D02*
X242632500Y-32800000D01*
X242632500Y-32800000D02*
X246112500Y-32800000D01*
X227214500Y-30425000D02*
X227964500Y-30425000D01*
X241747500Y-29239002D02*
X241747500Y-31915000D01*
X259947500Y-33855000D02*
X259947500Y-33915000D01*
X248087500Y-30825000D02*
X256917500Y-30825000D01*
X230959498Y-25945000D02*
X238453498Y-25945000D01*
X229197500Y-29192000D02*
X229197500Y-27706998D01*
X229197500Y-27706998D02*
X230959498Y-25945000D01*
X227964500Y-30425000D02*
X229197500Y-29192000D01*
X246112500Y-32800000D02*
X248087500Y-30825000D01*
X259947500Y-33855000D02*
X260757500Y-34665000D01*
X264464500Y-37550000D02*
X265214500Y-37550000D01*
X261762500Y-37550000D02*
X264464500Y-37550000D01*
X260757500Y-36545000D02*
X261762500Y-37550000D01*
X260757500Y-34665000D02*
X260757500Y-36545000D01*
X170485900Y-46265000D02*
X173357500Y-46265000D01*
X169598900Y-47152000D02*
X170485900Y-46265000D01*
X171063762Y-30964760D02*
X174063522Y-27965000D01*
X171063762Y-31389024D02*
X171063762Y-30964760D01*
X174063522Y-27965000D02*
X180487500Y-27965000D01*
X180487500Y-27965000D02*
X184897500Y-32375000D01*
X184897500Y-32375000D02*
X184897500Y-34035000D01*
X186042500Y-35180000D02*
X189207500Y-35180000D01*
X184897500Y-34035000D02*
X186042500Y-35180000D01*
X265214500Y-32490000D02*
X265214500Y-34000000D01*
X263456500Y-30732000D02*
X265214500Y-32490000D01*
X263456500Y-30695000D02*
X263456500Y-30732000D01*
X246214500Y-27770000D02*
X246214500Y-29250000D01*
X244456500Y-26012000D02*
X246214500Y-27770000D01*
X244456500Y-25945000D02*
X244456500Y-26012000D01*
X227214500Y-25330000D02*
X227214500Y-26875000D01*
X225456500Y-23572000D02*
X227214500Y-25330000D01*
X225456500Y-23570000D02*
X225456500Y-23572000D01*
X208214500Y-27690000D02*
X208214500Y-29250000D01*
X206469500Y-25945000D02*
X208214500Y-27690000D01*
X206456500Y-25945000D02*
X206469500Y-25945000D01*
X189207500Y-30143000D02*
X189207500Y-31630000D01*
X187456500Y-28392000D02*
X189207500Y-30143000D01*
X187456500Y-28320000D02*
X187456500Y-28392000D01*
X279457500Y-55265000D02*
X280592500Y-56400000D01*
X279457500Y-52699002D02*
X279457500Y-55265000D01*
X276213498Y-49455000D02*
X279457500Y-52699002D01*
X267027500Y-51095000D02*
X268667500Y-49455000D01*
X265214500Y-56550000D02*
X265214500Y-56248000D01*
X265214500Y-56248000D02*
X267027500Y-54435000D01*
X268667500Y-49455000D02*
X276213498Y-49455000D01*
X280592500Y-56400000D02*
X284214500Y-56400000D01*
X267027500Y-54435000D02*
X267027500Y-51095000D01*
X208964500Y-51800000D02*
X210047500Y-50717000D01*
X208214500Y-51800000D02*
X208964500Y-51800000D01*
X210047500Y-50717000D02*
X210047500Y-43385000D01*
X210047500Y-43385000D02*
X211367500Y-42065000D01*
X211367500Y-42065000D02*
X217767500Y-42065000D01*
X217767500Y-42065000D02*
X222757500Y-47055000D01*
X222757500Y-47055000D02*
X222757500Y-48065000D01*
X224117500Y-49425000D02*
X227214500Y-49425000D01*
X222757500Y-48065000D02*
X224117500Y-49425000D01*
X227964500Y-49425000D02*
X229167500Y-48222000D01*
X227214500Y-49425000D02*
X227964500Y-49425000D01*
X229167500Y-48222000D02*
X229167500Y-45095000D01*
X229167500Y-45095000D02*
X230097500Y-44165000D01*
X230097500Y-44165000D02*
X237067500Y-44165000D01*
X237067500Y-44165000D02*
X241647500Y-48745000D01*
X241647500Y-48745000D02*
X241647500Y-50505000D01*
X242942500Y-51800000D02*
X246214500Y-51800000D01*
X241647500Y-50505000D02*
X242942500Y-51800000D01*
X262122500Y-56550000D02*
X265214500Y-56550000D01*
X260987500Y-53985000D02*
X260987500Y-55415000D01*
X249159500Y-49605000D02*
X256607500Y-49605000D01*
X256607500Y-49605000D02*
X260987500Y-53985000D01*
X260987500Y-55415000D02*
X262122500Y-56550000D01*
X246964500Y-51800000D02*
X249159500Y-49605000D01*
X246214500Y-51800000D02*
X246964500Y-51800000D01*
X184957500Y-53055000D02*
X186082500Y-54180000D01*
X184957500Y-51655000D02*
X184957500Y-53055000D01*
X180457500Y-47155000D02*
X184957500Y-51655000D01*
X172527500Y-47155000D02*
X180457500Y-47155000D01*
X186082500Y-54180000D02*
X189207500Y-54180000D01*
X169990500Y-49692000D02*
X172527500Y-47155000D01*
X169598900Y-49692000D02*
X169990500Y-49692000D01*
X203757500Y-50915000D02*
X204642500Y-51800000D01*
X203757500Y-48555000D02*
X203757500Y-50915000D01*
X198697500Y-43495000D02*
X203757500Y-48555000D01*
X191127500Y-46220000D02*
X193852500Y-43495000D01*
X193852500Y-43495000D02*
X198697500Y-43495000D01*
X204642500Y-51800000D02*
X208214500Y-51800000D01*
X191127500Y-53010000D02*
X191127500Y-46220000D01*
X189957500Y-54180000D02*
X191127500Y-53010000D01*
X189207500Y-54180000D02*
X189957500Y-54180000D01*
X284214500Y-51390000D02*
X284214500Y-51600000D01*
X282519500Y-49695000D02*
X284214500Y-51390000D01*
X284214500Y-51600000D02*
X284214500Y-52850000D01*
X282456500Y-49695000D02*
X282519500Y-49695000D01*
X265214500Y-51530000D02*
X265214500Y-53000000D01*
X263456500Y-49772000D02*
X265214500Y-51530000D01*
X263456500Y-49695000D02*
X263456500Y-49772000D01*
X246214500Y-46610000D02*
X246214500Y-48250000D01*
X244549500Y-44945000D02*
X246214500Y-46610000D01*
X244456500Y-44945000D02*
X244549500Y-44945000D01*
X227214500Y-44400000D02*
X227214500Y-45875000D01*
X225456500Y-42642000D02*
X227214500Y-44400000D01*
X225456500Y-42570000D02*
X225456500Y-42642000D01*
X208214500Y-46730000D02*
X208214500Y-48250000D01*
X206456500Y-44972000D02*
X208214500Y-46730000D01*
X206456500Y-44945000D02*
X206456500Y-44972000D01*
X189207500Y-49003000D02*
X189207500Y-50630000D01*
X187524500Y-47320000D02*
X189207500Y-49003000D01*
X187456500Y-47320000D02*
X187524500Y-47320000D01*
X265214500Y-75288000D02*
X265214500Y-75550000D01*
X267027500Y-69675000D02*
X267027500Y-73475000D01*
X268357500Y-68345000D02*
X267027500Y-69675000D01*
X279697500Y-72885000D02*
X275157500Y-68345000D01*
X279697500Y-74275000D02*
X279697500Y-72885000D01*
X283409500Y-75605000D02*
X281027500Y-75605000D01*
X281027500Y-75605000D02*
X279697500Y-74275000D01*
X283464500Y-75550000D02*
X283409500Y-75605000D01*
X267027500Y-73475000D02*
X265214500Y-75288000D01*
X275157500Y-68345000D02*
X268357500Y-68345000D01*
X284214500Y-75550000D02*
X283464500Y-75550000D01*
X189957500Y-73180000D02*
X191147500Y-71990000D01*
X189207500Y-73180000D02*
X189957500Y-73180000D01*
X191147500Y-71990000D02*
X191147500Y-64785000D01*
X191147500Y-64785000D02*
X192437500Y-63495000D01*
X192437500Y-63495000D02*
X199307500Y-63495000D01*
X199307500Y-63495000D02*
X203757500Y-67945000D01*
X203757500Y-67945000D02*
X203757500Y-69395000D01*
X205162500Y-70800000D02*
X208214500Y-70800000D01*
X203757500Y-69395000D02*
X205162500Y-70800000D01*
X223087500Y-68425000D02*
X227687500Y-68425000D01*
X222577500Y-67915000D02*
X223087500Y-68425000D01*
X222577500Y-65115000D02*
X222577500Y-67915000D01*
X218967500Y-61505000D02*
X222577500Y-65115000D01*
X210167500Y-63155000D02*
X211817500Y-61505000D01*
X227687500Y-68425000D02*
X227214500Y-68425000D01*
X210167500Y-69597000D02*
X210167500Y-63155000D01*
X208964500Y-70800000D02*
X210167500Y-69597000D01*
X211817500Y-61505000D02*
X218967500Y-61505000D01*
X208214500Y-70800000D02*
X208964500Y-70800000D01*
X227964500Y-68425000D02*
X229137500Y-67252000D01*
X227214500Y-68425000D02*
X227964500Y-68425000D01*
X229137500Y-67252000D02*
X229137500Y-64155000D01*
X229137500Y-64155000D02*
X229907500Y-63385000D01*
X229907500Y-63385000D02*
X237097500Y-63385000D01*
X237097500Y-63385000D02*
X241527500Y-67815000D01*
X241527500Y-67815000D02*
X241527500Y-69275000D01*
X243052500Y-70800000D02*
X246214500Y-70800000D01*
X241527500Y-69275000D02*
X243052500Y-70800000D01*
X264464500Y-75550000D02*
X265214500Y-75550000D01*
X261932500Y-75550000D02*
X264464500Y-75550000D01*
X260957500Y-74575000D02*
X261932500Y-75550000D01*
X260957500Y-72965000D02*
X260957500Y-74575000D01*
X249207500Y-68557000D02*
X256549500Y-68557000D01*
X256549500Y-68557000D02*
X260957500Y-72965000D01*
X246964500Y-70800000D02*
X249207500Y-68557000D01*
X246214500Y-70800000D02*
X246964500Y-70800000D01*
X191247500Y-62305000D02*
X192437500Y-63495000D01*
X175427500Y-62305000D02*
X191247500Y-62305000D01*
X175232500Y-62500000D02*
X175427500Y-62305000D01*
X170747500Y-53930010D02*
X175232500Y-58415010D01*
X170747500Y-52985000D02*
X170747500Y-53930010D01*
X169994500Y-52232000D02*
X170747500Y-52985000D01*
X169598900Y-52232000D02*
X169994500Y-52232000D01*
X284214500Y-70430000D02*
X284214500Y-72000000D01*
X282479500Y-68695000D02*
X284214500Y-70430000D01*
X282456500Y-68695000D02*
X282479500Y-68695000D01*
X263469500Y-68695000D02*
X265214500Y-70440000D01*
X265214500Y-70440000D02*
X265214500Y-72000000D01*
X263456500Y-68695000D02*
X263469500Y-68695000D01*
X244469500Y-63945000D02*
X246214500Y-65690000D01*
X246214500Y-65690000D02*
X246214500Y-67250000D01*
X244456500Y-63945000D02*
X244469500Y-63945000D01*
X227214500Y-63350000D02*
X227214500Y-64875000D01*
X225456500Y-61592000D02*
X227214500Y-63350000D01*
X225456500Y-61570000D02*
X225456500Y-61592000D01*
X206489500Y-63945000D02*
X208214500Y-65670000D01*
X208214500Y-65670000D02*
X208214500Y-67250000D01*
X206456500Y-63945000D02*
X206489500Y-63945000D01*
D25*
X189614500Y-70482000D02*
X188777500Y-69645000D01*
D24*
X188964728Y-67870228D02*
X188964728Y-69192990D01*
X187456500Y-66362000D02*
X188964728Y-67870228D01*
X188964728Y-69192990D02*
X188964729Y-69192991D01*
X187456500Y-66320000D02*
X187456500Y-66362000D01*
X215956500Y-83570000D02*
X216072500Y-83570000D01*
X217714500Y-85212000D02*
X217714500Y-86860000D01*
X216072500Y-83570000D02*
X217714500Y-85212000D01*
X216964500Y-90410000D02*
X215969500Y-91405000D01*
X217714500Y-90410000D02*
X216964500Y-90410000D01*
X200414500Y-90425000D02*
X199664500Y-90425000D01*
X201394500Y-91405000D02*
X200414500Y-90425000D01*
X215969500Y-91405000D02*
X201394500Y-91405000D01*
X199664500Y-90425000D02*
X198914500Y-90425000D01*
X198167500Y-90405000D02*
X196814500Y-90425000D01*
X198914500Y-90425000D02*
X198167500Y-90405000D01*
X172537500Y-56375000D02*
X172537500Y-58715000D01*
X170934500Y-54772000D02*
X172537500Y-56375000D01*
X169598900Y-54772000D02*
X170934500Y-54772000D01*
X197797500Y-90035000D02*
X198167500Y-90405000D01*
X196139498Y-85465000D02*
X197489502Y-85465000D01*
X194647500Y-88185000D02*
X195807500Y-87025000D01*
X167110558Y-85628058D02*
X184420558Y-85628058D01*
X186977500Y-88185000D02*
X194647500Y-88185000D01*
X195807500Y-87025000D02*
X195807500Y-85796998D01*
X184420558Y-85628058D02*
X186977500Y-88185000D01*
X195807500Y-85796998D02*
X196139498Y-85465000D01*
X197489502Y-85465000D02*
X197797500Y-85772998D01*
X197797500Y-85772998D02*
X197797500Y-90035000D01*
X194483671Y-83940043D02*
X197979543Y-83940043D01*
X199664500Y-85625000D02*
X199664500Y-86875000D01*
X197979543Y-83940043D02*
X199664500Y-85625000D01*
X193442638Y-84981076D02*
X194483671Y-83940043D01*
X174647500Y-97206729D02*
X174184909Y-97669320D01*
X174647500Y-88020000D02*
X174647500Y-97206729D01*
X184326089Y-86170000D02*
X176497500Y-86170000D01*
X176497500Y-86170000D02*
X174647500Y-88020000D01*
X196814500Y-86875000D02*
X196627500Y-86875000D01*
X194867489Y-88635011D02*
X186791100Y-88635011D01*
X196627500Y-86875000D02*
X194867489Y-88635011D01*
X186791100Y-88635011D02*
X184326089Y-86170000D01*
X169600000Y-31910900D02*
X169598900Y-31912000D01*
X169570900Y-59880000D02*
X169598900Y-59852000D01*
X165797500Y-59880000D02*
X169570900Y-59880000D01*
X163206500Y-80922000D02*
X163206500Y-83178000D01*
X166411500Y-77717000D02*
X163206500Y-80922000D01*
X152979499Y-38391401D02*
X154378900Y-36992000D01*
X152979499Y-68446999D02*
X152979499Y-38391401D01*
X154304500Y-69772000D02*
X152979499Y-68446999D01*
X269529500Y-35127000D02*
X269607500Y-35205000D01*
X269529500Y-33235000D02*
X269529500Y-35127000D01*
X269507500Y-71213000D02*
X269529500Y-71235000D01*
X269507500Y-69305000D02*
X269507500Y-71213000D01*
X269529500Y-54467000D02*
X269617500Y-54555000D01*
X269529500Y-52235000D02*
X269529500Y-54467000D01*
X269529500Y-52235000D02*
X269529500Y-50268010D01*
X269529500Y-50268010D02*
X269592510Y-50205000D01*
D25*
X242591479Y-57383979D02*
X243787500Y-58580000D01*
X172177110Y-61674944D02*
X173976088Y-59875966D01*
X173976088Y-59875966D02*
X194593158Y-59875966D01*
X154383900Y-42073000D02*
X154450500Y-42073000D01*
X194593158Y-59875966D02*
X197085145Y-57383979D01*
X154450500Y-42073000D02*
X157567501Y-45190001D01*
X197085145Y-57383979D02*
X242591479Y-57383979D01*
X157567501Y-45190001D02*
X157567501Y-55070001D01*
X164172444Y-61674944D02*
X172177110Y-61674944D01*
X157567501Y-55070001D02*
X164172444Y-61674944D01*
D24*
X269147500Y-66950000D02*
X269547500Y-66550000D01*
X265817500Y-66950000D02*
X269147500Y-66950000D01*
X250297501Y-63475009D02*
X251097492Y-64275000D01*
X251097492Y-64275000D02*
X263142500Y-64275000D01*
X263142500Y-64275000D02*
X265817500Y-66950000D01*
X248692509Y-63475009D02*
X250297501Y-63475009D01*
X243787500Y-58570000D02*
X248692509Y-63475009D01*
X250529500Y-35083000D02*
X250507500Y-35105000D01*
X250529500Y-33235000D02*
X250529500Y-35083000D01*
X250507500Y-52213000D02*
X250529500Y-52235000D01*
X250507500Y-50305000D02*
X250507500Y-52213000D01*
X250529500Y-54183000D02*
X250507500Y-54205000D01*
X250529500Y-52235000D02*
X250529500Y-54183000D01*
X250507500Y-71213000D02*
X250529500Y-71235000D01*
X250507500Y-69205000D02*
X250507500Y-71213000D01*
X248647510Y-64100010D02*
X249997500Y-64100010D01*
X248377500Y-63830000D02*
X248647510Y-64100010D01*
D25*
X243496865Y-58970125D02*
X243607500Y-59040000D01*
X157113491Y-47342591D02*
X157113491Y-55288059D01*
X163954387Y-62128955D02*
X172365167Y-62128955D01*
X154383900Y-44613000D02*
X157113491Y-47342591D01*
X157113491Y-55288059D02*
X163954387Y-62128955D01*
X174164145Y-60329977D02*
X194781216Y-60329976D01*
X243607500Y-59040000D02*
X248417500Y-63850000D01*
X197273203Y-57837989D02*
X242364729Y-57837989D01*
X172365167Y-62128955D02*
X174164145Y-60329977D01*
X194781216Y-60329976D02*
X197273203Y-57837989D01*
X242364729Y-57837989D02*
X243496865Y-58970125D01*
D24*
X231529500Y-30283000D02*
X231507500Y-30305000D01*
X231529500Y-28485000D02*
X231529500Y-30283000D01*
X231507500Y-47463000D02*
X231529500Y-47485000D01*
X231507500Y-45505000D02*
X231507500Y-47463000D01*
X231529500Y-49427000D02*
X231607500Y-49505000D01*
X231529500Y-47485000D02*
X231529500Y-49427000D01*
X231607500Y-66407000D02*
X231529500Y-66485000D01*
X231607500Y-64505000D02*
X231607500Y-66407000D01*
D25*
X194969272Y-60783988D02*
X197453260Y-58300000D01*
X197453260Y-58300000D02*
X231021398Y-58300000D01*
X231021398Y-58300000D02*
X231234449Y-58513051D01*
X156659480Y-49428580D02*
X156659480Y-55476116D01*
X172553225Y-62582965D02*
X174352202Y-60783988D01*
X156659480Y-55476116D02*
X163766330Y-62582966D01*
X163766330Y-62582966D02*
X172553225Y-62582965D01*
X174352202Y-60783988D02*
X194969272Y-60783988D01*
X154383900Y-47153000D02*
X156659480Y-49428580D01*
D24*
X212529500Y-27983000D02*
X212507500Y-28005000D01*
X212529500Y-26110000D02*
X212529500Y-27983000D01*
X212507500Y-45088000D02*
X212529500Y-45110000D01*
X212507500Y-43105000D02*
X212507500Y-45088000D01*
X212529500Y-47083000D02*
X212507500Y-47105000D01*
X212529500Y-45110000D02*
X212529500Y-47083000D01*
X212507500Y-64088000D02*
X212529500Y-64110000D01*
X212507500Y-62205000D02*
X212507500Y-64088000D01*
X203029500Y-84393000D02*
X203087500Y-84335000D01*
X203029500Y-86110000D02*
X203029500Y-84393000D01*
X212557500Y-64138000D02*
X212529500Y-64110000D01*
X212557500Y-65985000D02*
X212557500Y-64138000D01*
D25*
X163578273Y-63036977D02*
X172741281Y-63036977D01*
X156205469Y-51514569D02*
X156205469Y-55664173D01*
X156205469Y-55664173D02*
X163578273Y-63036977D01*
X172741281Y-63036977D02*
X174540259Y-61237999D01*
X174540259Y-61237999D02*
X195200705Y-61237999D01*
X154383900Y-49693000D02*
X156205469Y-51514569D01*
X195200705Y-61237999D02*
X196432683Y-60006021D01*
D24*
X197628704Y-58810000D02*
X211897500Y-58810000D01*
X211897500Y-58810000D02*
X212107500Y-59020000D01*
X196432683Y-60006021D02*
X197628704Y-58810000D01*
X193529500Y-30383000D02*
X193507500Y-30405000D01*
X193529500Y-28485000D02*
X193529500Y-30383000D01*
X193507500Y-47463000D02*
X193529500Y-47485000D01*
X193507500Y-45505000D02*
X193507500Y-47463000D01*
X193529500Y-49283000D02*
X193507500Y-49305000D01*
X193529500Y-47485000D02*
X193529500Y-49283000D01*
X193507500Y-66463000D02*
X193529500Y-66485000D01*
X193507500Y-64505000D02*
X193507500Y-66463000D01*
X193529500Y-68313000D02*
X193517500Y-68325000D01*
X193529500Y-66485000D02*
X193529500Y-68313000D01*
X181187500Y-90354266D02*
X181613515Y-90780281D01*
X181187500Y-88895000D02*
X181187500Y-90354266D01*
X174562509Y-61854989D02*
X192693225Y-61854989D01*
X172974749Y-63490989D02*
X172974749Y-63442749D01*
X172974749Y-63442749D02*
X174562509Y-61854989D01*
X192693225Y-61854989D02*
X192713236Y-61875000D01*
X192713236Y-61875000D02*
X193137500Y-61875000D01*
D25*
X163390217Y-63490989D02*
X172974749Y-63490989D01*
X155751460Y-53600560D02*
X155751460Y-55852232D01*
X155751460Y-55852232D02*
X163390217Y-63490989D01*
X154383900Y-52233000D02*
X155751460Y-53600560D01*
D24*
X174529500Y-32783000D02*
X174507500Y-32805000D01*
X174529500Y-30860000D02*
X174529500Y-32783000D01*
X174507500Y-49838000D02*
X174529500Y-49860000D01*
X174507500Y-47805000D02*
X174507500Y-49838000D01*
X174529500Y-51827000D02*
X174607500Y-51905000D01*
X174529500Y-49860000D02*
X174529500Y-51827000D01*
X174507500Y-68838000D02*
X174529500Y-68860000D01*
X174507500Y-66905000D02*
X174507500Y-68838000D01*
X174529500Y-70563000D02*
X174417500Y-70675000D01*
X174529500Y-68860000D02*
X174529500Y-70563000D01*
X166590915Y-86675000D02*
X165521705Y-87744210D01*
X166887500Y-86675000D02*
X166590915Y-86675000D01*
X173367500Y-63945000D02*
X174297500Y-63015000D01*
X173162804Y-63945000D02*
X173367500Y-63945000D01*
D25*
X163202160Y-63945000D02*
X173162804Y-63945000D01*
X154383900Y-55126740D02*
X163202160Y-63945000D01*
X154383900Y-54773000D02*
X154383900Y-55126740D01*
D27*
X154378900Y-39532000D02*
X155651900Y-40805000D01*
X162702500Y-72305000D02*
X162837500Y-72170000D01*
X164497499Y-56039999D02*
X164497499Y-43389999D01*
X165797500Y-57340000D02*
X164497499Y-56039999D01*
X161912500Y-40805000D02*
X161872500Y-40805000D01*
X155651900Y-40805000D02*
X161872500Y-40805000D01*
X164497499Y-43389999D02*
X161912500Y-40805000D01*
X162087501Y-72919999D02*
X162837500Y-72170000D01*
X162087501Y-79367433D02*
X162087501Y-72919999D01*
X160861735Y-80593199D02*
X162087501Y-79367433D01*
D26*
X226044490Y-31685990D02*
X228419490Y-34060990D01*
X214474510Y-31685990D02*
X226044490Y-31685990D01*
X195315499Y-33954001D02*
X212206499Y-33954001D01*
X251712343Y-38704001D02*
X272393501Y-38704001D01*
X192828510Y-36440990D02*
X195315499Y-33954001D01*
X272393501Y-38704001D02*
X273864500Y-40175000D01*
X176064510Y-36440990D02*
X192828510Y-36440990D01*
X174189501Y-38315999D02*
X176064510Y-36440990D01*
X164401501Y-38315999D02*
X174189501Y-38315999D01*
X247069332Y-34060990D02*
X251712343Y-38704001D01*
X212206499Y-33954001D02*
X214474510Y-31685990D01*
X161912500Y-40805000D02*
X164401501Y-38315999D01*
X253183342Y-40175000D02*
X251712343Y-38704001D01*
X254864500Y-40175000D02*
X253183342Y-40175000D01*
X232704500Y-35425000D02*
X231340490Y-34060990D01*
X235864500Y-35425000D02*
X232704500Y-35425000D01*
X231340490Y-34060990D02*
X247069332Y-34060990D01*
X228419490Y-34060990D02*
X231340490Y-34060990D01*
X215838520Y-33050000D02*
X214474510Y-31685990D01*
X216864500Y-33050000D02*
X215838520Y-33050000D01*
X196786498Y-35425000D02*
X195315499Y-33954001D01*
X197864500Y-35425000D02*
X196786498Y-35425000D01*
X177428520Y-37805000D02*
X176064510Y-36440990D01*
X178857500Y-37805000D02*
X177428520Y-37805000D01*
X164360499Y-96351921D02*
X166284500Y-98275922D01*
X164360499Y-95111723D02*
X164360499Y-96351921D01*
X160861735Y-91612959D02*
X164360499Y-95111723D01*
X160861735Y-80593199D02*
X160861735Y-91612959D01*
X166284500Y-98275922D02*
X166284500Y-98291000D01*
X166284500Y-98291000D02*
X167173500Y-99180000D01*
X167173500Y-99180000D02*
X167173500Y-101212000D01*
X167173500Y-101212000D02*
X166030500Y-102355000D01*
X165083712Y-102355000D02*
X163116282Y-100387570D01*
X166030500Y-102355000D02*
X165083712Y-102355000D01*
X168000499Y-100223330D02*
X169243169Y-101466000D01*
X168000499Y-100006999D02*
X168000499Y-100223330D01*
X167173500Y-99180000D02*
X168000499Y-100006999D01*
X169243169Y-101466000D02*
X179238500Y-101466000D01*
X179238500Y-101466000D02*
X179238500Y-101466000D01*
X193773948Y-97510079D02*
X194000069Y-97283958D01*
X194000069Y-97283958D02*
X194000069Y-95976229D01*
X191717867Y-98258431D02*
X193773948Y-97510079D01*
X186310436Y-101466000D02*
X188839267Y-101137031D01*
X188839267Y-101137031D02*
X191717867Y-98258431D01*
X184064500Y-101466000D02*
X186310436Y-101466000D01*
X213103500Y-97573000D02*
X213103500Y-94863500D01*
X212634999Y-98041501D02*
X213103500Y-97573000D01*
X188839267Y-101137031D02*
X212634999Y-98041501D01*
X177390579Y-74334001D02*
X193797499Y-74334001D01*
X175226578Y-72170000D02*
X177390579Y-74334001D01*
X196070510Y-72060990D02*
X212326510Y-72060990D01*
X193797499Y-74334001D02*
X196070510Y-72060990D01*
X252763288Y-76810990D02*
X272500490Y-76810990D01*
X248013288Y-72060990D02*
X252763288Y-76810990D01*
X234505499Y-72060990D02*
X248013288Y-72060990D01*
X272500490Y-76810990D02*
X273864500Y-78175000D01*
X232130499Y-69685990D02*
X234505499Y-72060990D01*
X214701510Y-69685990D02*
X232130499Y-69685990D01*
X212326510Y-72060990D02*
X214701510Y-69685990D01*
X254127298Y-78175000D02*
X252763288Y-76810990D01*
X254864500Y-78175000D02*
X254127298Y-78175000D01*
X235864500Y-73419991D02*
X234505499Y-72060990D01*
X235864500Y-73425000D02*
X235864500Y-73419991D01*
X216065520Y-71050000D02*
X214701510Y-69685990D01*
X216864500Y-71050000D02*
X216065520Y-71050000D01*
X197434520Y-73425000D02*
X196070510Y-72060990D01*
X197864500Y-73425000D02*
X197434520Y-73425000D01*
X178856578Y-75800000D02*
X177390579Y-74334001D01*
X178864500Y-75800000D02*
X178856578Y-75800000D01*
X168611500Y-71435798D02*
X176046298Y-64001000D01*
X168611500Y-72170000D02*
X168611500Y-71435798D01*
X162837500Y-72170000D02*
X168611500Y-72170000D01*
X168611500Y-72170000D02*
X175226578Y-72170000D01*
X176046298Y-64001000D02*
X176046298Y-64001000D01*
X185339500Y-59175000D02*
X184364500Y-58200000D01*
X187239500Y-59175000D02*
X185339500Y-59175000D01*
X187239500Y-59175000D02*
X194097500Y-59175000D01*
X194097500Y-59175000D02*
X195494500Y-57778000D01*
X195494500Y-57778000D02*
X195494500Y-57778000D01*
X222364500Y-54549000D02*
X224450500Y-56635000D01*
X222364500Y-53450000D02*
X222364500Y-54549000D01*
X224450500Y-56635000D02*
X232959500Y-56635000D01*
X211067500Y-55825000D02*
X211877500Y-56635000D01*
X203364500Y-55825000D02*
X211067500Y-55825000D01*
X211877500Y-56635000D02*
X224450500Y-56635000D01*
X210353500Y-56635000D02*
X211877500Y-56635000D01*
X232959500Y-56635000D02*
X232959500Y-56635000D01*
X242182500Y-55825000D02*
X241364500Y-55825000D01*
X244008500Y-57651000D02*
X242182500Y-55825000D01*
X279364500Y-61201919D02*
X279364500Y-60575000D01*
X274601591Y-61939010D02*
X278627409Y-61939010D01*
X278627409Y-61939010D02*
X279364500Y-61201919D01*
X274324080Y-61661499D02*
X274601591Y-61939010D01*
X265849579Y-61661499D02*
X274324080Y-61661499D01*
X265572068Y-61939010D02*
X265849579Y-61661499D01*
X244008500Y-57651000D02*
X248296510Y-61939010D01*
X261156500Y-60575000D02*
X262520510Y-61939010D01*
X262520510Y-61939010D02*
X265572068Y-61939010D01*
X260364500Y-60575000D02*
X261156500Y-60575000D01*
X248296510Y-61939010D02*
X262520510Y-61939010D01*
X162875502Y-36790000D02*
X164401501Y-38315999D01*
X161987500Y-36790000D02*
X162875502Y-36790000D01*
X167063900Y-34453000D02*
X169603900Y-36993000D01*
X154383900Y-34453000D02*
X167063900Y-34453000D01*
X188540499Y-40569010D02*
X170635910Y-40569010D01*
X190000509Y-39109000D02*
X188540499Y-40569010D01*
X247310500Y-44570000D02*
X241849500Y-39109000D01*
X262169500Y-44570000D02*
X247310500Y-44570000D01*
X264210499Y-42529001D02*
X262169500Y-44570000D01*
X271948500Y-43935000D02*
X270542501Y-42529001D01*
X270542501Y-42529001D02*
X264210499Y-42529001D01*
X277631419Y-43935000D02*
X271948500Y-43935000D01*
X170635910Y-40569010D02*
X169598900Y-39532000D01*
X279364500Y-42201919D02*
X277631419Y-43935000D01*
X279364500Y-41575000D02*
X279364500Y-42201919D01*
X260364500Y-42765000D02*
X262169500Y-44570000D01*
X260364500Y-41575000D02*
X260364500Y-42765000D01*
X241364500Y-38624000D02*
X241849500Y-39109000D01*
X241364500Y-36825000D02*
X241364500Y-38624000D01*
X222364500Y-37531000D02*
X223942500Y-39109000D01*
X222364500Y-34450000D02*
X222364500Y-37531000D01*
X241849500Y-39109000D02*
X223942500Y-39109000D01*
X203364500Y-36825000D02*
X203364500Y-38470000D01*
X203364500Y-38470000D02*
X204003500Y-39109000D01*
X204003500Y-39109000D02*
X190000509Y-39109000D01*
X223942500Y-39109000D02*
X204003500Y-39109000D01*
X187176489Y-39205000D02*
X188540499Y-40569010D01*
X184357500Y-39205000D02*
X187176489Y-39205000D01*
X188352931Y-95234042D02*
X188352931Y-96541771D01*
X188579052Y-95007921D02*
X188352931Y-95234042D01*
X189574994Y-94645428D02*
X188579052Y-95007921D01*
X190774335Y-93446087D02*
X189574994Y-94645428D01*
X207586087Y-93446087D02*
X190774335Y-93446087D01*
X207603500Y-93463500D02*
X207586087Y-93446087D01*
X187448380Y-96541771D02*
X188352931Y-96541771D01*
X161578718Y-94924430D02*
X161578718Y-93331218D01*
X161578718Y-93331218D02*
X160696500Y-92449000D01*
X158791500Y-92449000D02*
X157394500Y-93846000D01*
X165798305Y-110128671D02*
X166211324Y-110541690D01*
X157394500Y-93846000D02*
X157394500Y-95557463D01*
X157394500Y-95557463D02*
X165798305Y-110128671D01*
X160696500Y-92449000D02*
X158791500Y-92449000D01*
X166211324Y-110541690D02*
X166913672Y-110541690D01*
X167059730Y-110458536D02*
X181228794Y-102269706D01*
X181228794Y-102269706D02*
X181466010Y-102032490D01*
X181466010Y-102032490D02*
X181957661Y-102032490D01*
X166913672Y-110541690D02*
X167059730Y-110458536D01*
X181957661Y-102032490D02*
X187448380Y-96541771D01*
X159607734Y-91360234D02*
X160696500Y-92449000D01*
X159607734Y-75941766D02*
X159607734Y-91360234D01*
X159924500Y-75625000D02*
X159607734Y-75941766D01*
D24*
X164530000Y-73549500D02*
X170602500Y-79622000D01*
X196383500Y-79622000D02*
X199304500Y-76701000D01*
X213528500Y-76701000D02*
X215814500Y-74415000D01*
X231816500Y-74415000D02*
X234229500Y-76828000D01*
X248834500Y-76828000D02*
X253787500Y-81781000D01*
X279364500Y-80019486D02*
X279364500Y-79575000D01*
X277602986Y-81781000D02*
X279364500Y-80019486D01*
X260364500Y-80325000D02*
X261820500Y-81781000D01*
X260364500Y-79575000D02*
X260364500Y-80325000D01*
X262550500Y-81781000D02*
X277602986Y-81781000D01*
X261820500Y-81781000D02*
X262550500Y-81781000D01*
X253787500Y-81781000D02*
X262550500Y-81781000D01*
X243021500Y-74825000D02*
X245024500Y-76828000D01*
X241364500Y-74825000D02*
X243021500Y-74825000D01*
X245024500Y-76828000D02*
X248834500Y-76828000D01*
X234229500Y-76828000D02*
X245024500Y-76828000D01*
X225279500Y-72450000D02*
X227244500Y-74415000D01*
X222364500Y-72450000D02*
X225279500Y-72450000D01*
X227244500Y-74415000D02*
X231816500Y-74415000D01*
X215814500Y-74415000D02*
X227244500Y-74415000D01*
X205302500Y-74825000D02*
X207178500Y-76701000D01*
X203364500Y-74825000D02*
X205302500Y-74825000D01*
X207178500Y-76701000D02*
X213528500Y-76701000D01*
X199304500Y-76701000D02*
X207178500Y-76701000D01*
X185579500Y-77200000D02*
X188001500Y-79622000D01*
X184364500Y-77200000D02*
X185579500Y-77200000D01*
X188001500Y-79622000D02*
X196383500Y-79622000D01*
X170602500Y-79622000D02*
X188001500Y-79622000D01*
D26*
X178127298Y-56800000D02*
X178864500Y-56800000D01*
X172343297Y-51015999D02*
X178127298Y-56800000D01*
X168223501Y-51015999D02*
X172343297Y-51015999D01*
X165797500Y-53442000D02*
X168223501Y-51015999D01*
X165797500Y-54800000D02*
X165797500Y-53442000D01*
X178864500Y-56800000D02*
X178864500Y-55118000D01*
X178864500Y-55118000D02*
X178864500Y-55118000D01*
X197788500Y-54349000D02*
X197864500Y-54425000D01*
X191938500Y-54349000D02*
X197788500Y-54349000D01*
X197864500Y-54425000D02*
X197864500Y-53122000D01*
X197864500Y-53122000D02*
X197864500Y-53122000D01*
X272500490Y-57810990D02*
X273864500Y-59175000D01*
X247077701Y-52954001D02*
X251934690Y-57810990D01*
X251934690Y-57810990D02*
X272500490Y-57810990D01*
X223420581Y-50154001D02*
X226220581Y-52954001D01*
X212262499Y-50154001D02*
X223420581Y-50154001D01*
X210353500Y-52063000D02*
X212262499Y-50154001D01*
X253298700Y-59175000D02*
X251934690Y-57810990D01*
X254864500Y-59175000D02*
X253298700Y-59175000D01*
X234051500Y-54425000D02*
X232580501Y-52954001D01*
X235864500Y-54425000D02*
X234051500Y-54425000D01*
X232580501Y-52954001D02*
X247077701Y-52954001D01*
X226220581Y-52954001D02*
X232580501Y-52954001D01*
X214158498Y-52050000D02*
X212262499Y-50154001D01*
X216864500Y-52050000D02*
X214158498Y-52050000D01*
D24*
X136533000Y-84829000D02*
X135263000Y-83559000D01*
X137582500Y-84829000D02*
X136533000Y-84829000D01*
X29180264Y-40180000D02*
X22857500Y-40180000D01*
X30580264Y-41580000D02*
X29180264Y-40180000D01*
X36357500Y-41580000D02*
X30580264Y-41580000D01*
X17357500Y-41580000D02*
X17357500Y-42709000D01*
X17357500Y-42709000D02*
X17357500Y-42709000D01*
X15162500Y-60580000D02*
X15154500Y-60572000D01*
X17357500Y-60580000D02*
X15162500Y-60580000D01*
X22862500Y-59175000D02*
X22857500Y-59180000D01*
X23392502Y-59180000D02*
X22857500Y-59180000D01*
X24792502Y-60580000D02*
X23392502Y-59180000D01*
X36357500Y-60580000D02*
X24792502Y-60580000D01*
X22857500Y-78180000D02*
X27746000Y-78180000D01*
X29146000Y-79580000D02*
X36357500Y-79580000D01*
X27746000Y-78180000D02*
X29146000Y-79580000D01*
X78282498Y-94455000D02*
X83857500Y-94455000D01*
X75784970Y-94431540D02*
X75808430Y-94455000D01*
X75808430Y-94455000D02*
X78282498Y-94455000D01*
X66749829Y-82240223D02*
X67283573Y-82773967D01*
X66749829Y-82233010D02*
X66749829Y-82240223D01*
X19260510Y-82233010D02*
X66749829Y-82233010D01*
X17357500Y-80330000D02*
X19260510Y-82233010D01*
X67283573Y-82773967D02*
X75784970Y-94431540D01*
X17357500Y-79580000D02*
X17357500Y-80330000D01*
X42642500Y-39395000D02*
X41857500Y-40180000D01*
X52792500Y-39395000D02*
X42642500Y-39395000D01*
X55357500Y-36830000D02*
X52792500Y-39395000D01*
X52007500Y-59180000D02*
X41857500Y-59180000D01*
X55357500Y-55830000D02*
X52007500Y-59180000D01*
X52007500Y-78180000D02*
X55357500Y-74830000D01*
X41857500Y-78180000D02*
X52007500Y-78180000D01*
X73382500Y-35430000D02*
X60857500Y-35430000D01*
X74357500Y-34455000D02*
X73382500Y-35430000D01*
X61832500Y-53455000D02*
X60857500Y-54430000D01*
X74357500Y-53455000D02*
X61832500Y-53455000D01*
X73382500Y-73430000D02*
X74357500Y-72455000D01*
X60857500Y-73430000D02*
X73382500Y-73430000D01*
X84167502Y-36830000D02*
X80392502Y-33055000D01*
X80392502Y-33055000D02*
X79857500Y-33055000D01*
X93357500Y-36830000D02*
X84167502Y-36830000D01*
X80392502Y-52055000D02*
X79857500Y-52055000D01*
X84167502Y-55830000D02*
X80392502Y-52055000D01*
X93357500Y-55830000D02*
X84167502Y-55830000D01*
X79857500Y-71055000D02*
X84692500Y-71055000D01*
X88467500Y-74830000D02*
X93357500Y-74830000D01*
X84692500Y-71055000D02*
X88467500Y-74830000D01*
X89357500Y-93055000D02*
X93548000Y-93055000D01*
X96469229Y-95976229D02*
X103110531Y-95976229D01*
X93548000Y-93055000D02*
X96469229Y-95976229D01*
X103912764Y-35430000D02*
X98857500Y-35430000D01*
X107687764Y-39205000D02*
X103912764Y-35430000D01*
X112357500Y-39205000D02*
X107687764Y-39205000D01*
X111822498Y-58205000D02*
X112357500Y-58205000D01*
X98857500Y-54430000D02*
X109163658Y-54430000D01*
X109163658Y-54430000D02*
X110410329Y-55676671D01*
X111257500Y-58205000D02*
X112357500Y-58205000D01*
X110410329Y-57357829D02*
X111257500Y-58205000D01*
X110410329Y-55676671D02*
X110410329Y-57357829D01*
X98857500Y-73430000D02*
X101990000Y-73430000D01*
X105765000Y-77205000D02*
X112357500Y-77205000D01*
X101990000Y-73430000D02*
X105765000Y-77205000D01*
X131976706Y-102074982D02*
X123268982Y-102074982D01*
X133333918Y-100717770D02*
X131976706Y-102074982D01*
X117735771Y-96541771D02*
X108757669Y-96541771D01*
X123268982Y-102074982D02*
X117735771Y-96541771D01*
X117857500Y-75805000D02*
X119795500Y-75805000D01*
X119795500Y-75805000D02*
X119795500Y-75805000D01*
X117878000Y-56825500D02*
X117857500Y-56805000D01*
X120564500Y-56825500D02*
X117878000Y-56825500D01*
X196569900Y-80072010D02*
X168912490Y-80072010D01*
X199490900Y-77151010D02*
X196569900Y-80072010D01*
X213714900Y-77151010D02*
X199490900Y-77151010D01*
X216000900Y-74865010D02*
X213714900Y-77151010D01*
X168912490Y-80072010D02*
X165806500Y-83178000D01*
X231630100Y-74865010D02*
X216000900Y-74865010D01*
X234043099Y-77278009D02*
X231630100Y-74865010D01*
X237367510Y-77278010D02*
X234043099Y-77278009D01*
X238614500Y-78525000D02*
X237367510Y-77278010D01*
X238614500Y-79625000D02*
X238614500Y-78525000D01*
X196884500Y-37805000D02*
X197864500Y-36825000D01*
X184357500Y-37805000D02*
X196884500Y-37805000D01*
X178857500Y-39205000D02*
X176475500Y-39205000D01*
X176475500Y-39205000D02*
X176475500Y-39205000D01*
X178823500Y-58159000D02*
X178864500Y-58200000D01*
X176317500Y-58159000D02*
X178823500Y-58159000D01*
X185599510Y-55564990D02*
X184364500Y-56800000D01*
X197604490Y-55564990D02*
X185599510Y-55564990D01*
X197864500Y-55825000D02*
X197604490Y-55564990D01*
X196889500Y-75800000D02*
X197864500Y-74825000D01*
X184364500Y-75800000D02*
X196889500Y-75800000D01*
X160366282Y-95624430D02*
X159299500Y-94557648D01*
X159299500Y-94557648D02*
X159299500Y-93973000D01*
X159299500Y-93973000D02*
X159299500Y-93973000D01*
X178857500Y-77207000D02*
X178864500Y-77200000D01*
X178857500Y-78860000D02*
X178857500Y-77207000D01*
X164328718Y-99687570D02*
X165903070Y-99687570D01*
X165903070Y-99687570D02*
X165903070Y-99687570D01*
X187890099Y-98799000D02*
X188831759Y-97857340D01*
X186604500Y-98799000D02*
X187890099Y-98799000D01*
X215889500Y-35425000D02*
X216864500Y-34450000D01*
X203364500Y-35425000D02*
X215889500Y-35425000D01*
X204339500Y-53450000D02*
X203364500Y-54425000D01*
X216864500Y-53450000D02*
X204339500Y-53450000D01*
X215889500Y-73425000D02*
X216864500Y-72450000D01*
X203364500Y-73425000D02*
X215889500Y-73425000D01*
X207400660Y-94660660D02*
X207603500Y-94863500D01*
X193521241Y-94660660D02*
X207400660Y-94660660D01*
X227239500Y-36825000D02*
X235864500Y-36825000D01*
X223464500Y-33050000D02*
X227239500Y-36825000D01*
X222364500Y-33050000D02*
X223464500Y-33050000D01*
X222899502Y-52050000D02*
X222364500Y-52050000D01*
X226674502Y-55825000D02*
X222899502Y-52050000D01*
X235864500Y-55825000D02*
X226674502Y-55825000D01*
X235329498Y-74825000D02*
X235864500Y-74825000D01*
X231554498Y-71050000D02*
X235329498Y-74825000D01*
X222364500Y-71050000D02*
X231554498Y-71050000D01*
X253764500Y-41575000D02*
X254864500Y-41575000D01*
X247614500Y-35425000D02*
X253764500Y-41575000D01*
X241364500Y-35425000D02*
X247614500Y-35425000D01*
X241899502Y-54425000D02*
X241364500Y-54425000D01*
X248049502Y-60575000D02*
X241899502Y-54425000D01*
X254864500Y-60575000D02*
X248049502Y-60575000D01*
X254329498Y-79575000D02*
X254864500Y-79575000D01*
X248179498Y-73425000D02*
X254329498Y-79575000D01*
X241364500Y-73425000D02*
X248179498Y-73425000D01*
X273329498Y-41575000D02*
X273864500Y-41575000D01*
X271929498Y-40175000D02*
X273329498Y-41575000D01*
X260364500Y-40175000D02*
X271929498Y-40175000D01*
X260899502Y-59175000D02*
X260364500Y-59175000D01*
X262299502Y-60575000D02*
X260899502Y-59175000D01*
X273864500Y-60575000D02*
X262299502Y-60575000D01*
X273329498Y-79575000D02*
X273864500Y-79575000D01*
X271929498Y-78175000D02*
X273329498Y-79575000D01*
X260364500Y-78175000D02*
X271929498Y-78175000D01*
X279364500Y-78175000D02*
X279364500Y-76370000D01*
X279364500Y-76370000D02*
X279364500Y-76370000D01*
X281727500Y-59175000D02*
X279364500Y-59175000D01*
X133963000Y-94346148D02*
X134871482Y-95254630D01*
X133963000Y-83559000D02*
X133963000Y-94346148D01*
X218539501Y-91370001D02*
X216446002Y-93463500D01*
X218539501Y-83042999D02*
X218539501Y-91370001D01*
X213097522Y-77601020D02*
X218539501Y-83042999D01*
X196756301Y-80522019D02*
X199677300Y-77601020D01*
X167427500Y-83392002D02*
X167427500Y-82193410D01*
X169098890Y-80522020D02*
X196756301Y-80522019D01*
X166566501Y-84253001D02*
X167427500Y-83392002D01*
X167427500Y-82193410D02*
X169098890Y-80522020D01*
X164581501Y-84253001D02*
X166566501Y-84253001D01*
X216446002Y-93463500D02*
X213103500Y-93463500D01*
X164506500Y-84178000D02*
X164581501Y-84253001D01*
X199677300Y-77601020D02*
X213097522Y-77601020D01*
X164506500Y-83178000D02*
X164506500Y-84178000D01*
X142423900Y-57342000D02*
X142423900Y-56772000D01*
X134814200Y-50018300D02*
X134812500Y-50020000D01*
X138204800Y-50018300D02*
X134814200Y-50018300D01*
X168205901Y-58704999D02*
X163757099Y-58704999D01*
X169598900Y-57312000D02*
X168205901Y-58704999D01*
X161987500Y-56935400D02*
X161987500Y-49990000D01*
X163757099Y-58704999D02*
X161987500Y-56935400D01*
M02*
