G04 #@! TF.GenerationSoftware,KiCad,Pcbnew,5.1.9*
G04 #@! TF.CreationDate,2021-03-27T16:20:26-06:00*
G04 #@! TF.ProjectId,corne-cherry,636f726e-652d-4636-9865-7272792e6b69,3.0.1*
G04 #@! TF.SameCoordinates,Original*
G04 #@! TF.FileFunction,Soldermask,Top*
G04 #@! TF.FilePolarity,Negative*
%FSLAX46Y46*%
G04 Gerber Fmt 4.6, Leading zero omitted, Abs format (unit mm)*
G04 Created by KiCad (PCBNEW 5.1.9) date 2021-03-27 16:20:26*
%MOMM*%
%LPD*%
G01*
G04 APERTURE LIST*
%ADD10C,3.400000*%
%ADD11C,2.300000*%
%ADD12C,4.500000*%
%ADD13C,2.000000*%
%ADD14O,2.100000X2.100000*%
%ADD15C,2.600000*%
%ADD16C,4.700000*%
%ADD17C,1.600000*%
%ADD18C,0.700000*%
G04 APERTURE END LIST*
G36*
G01*
X237564500Y-80475000D02*
X237564500Y-78775000D01*
G75*
G02*
X237764500Y-78575000I200000J0D01*
G01*
X239464500Y-78575000D01*
G75*
G02*
X239664500Y-78775000I0J-200000D01*
G01*
X239664500Y-80475000D01*
G75*
G02*
X239464500Y-80675000I-200000J0D01*
G01*
X237764500Y-80675000D01*
G75*
G02*
X237564500Y-80475000I0J200000D01*
G01*
G37*
G36*
G01*
X57057500Y-80480000D02*
X57057500Y-78780000D01*
G75*
G02*
X57257500Y-78580000I200000J0D01*
G01*
X58957500Y-78580000D01*
G75*
G02*
X59157500Y-78780000I0J-200000D01*
G01*
X59157500Y-80480000D01*
G75*
G02*
X58957500Y-80680000I-200000J0D01*
G01*
X57257500Y-80680000D01*
G75*
G02*
X57057500Y-80480000I0J200000D01*
G01*
G37*
D10*
X117647500Y-47325000D03*
X111297500Y-49865000D03*
D11*
X110027500Y-52405000D03*
X120187500Y-52405000D03*
D12*
X115107500Y-52405000D03*
D10*
X98647500Y-44950000D03*
X92297500Y-47490000D03*
D11*
X91027500Y-50030000D03*
X101187500Y-50030000D03*
D12*
X96107500Y-50030000D03*
G36*
G01*
X159876927Y-80419551D02*
X159876927Y-80419551D01*
G75*
G02*
X161035383Y-79608391I984808J-173648D01*
G01*
X161035383Y-79608391D01*
G75*
G02*
X161846543Y-80766847I-173648J-984808D01*
G01*
X161846543Y-80766847D01*
G75*
G02*
X160688087Y-81578007I-984808J173648D01*
G01*
X160688087Y-81578007D01*
G75*
G02*
X159876927Y-80419551I173648J984808D01*
G01*
G37*
D13*
X153357500Y-79270000D03*
G36*
G01*
X136968073Y-80379551D02*
X136968073Y-80379551D01*
G75*
G02*
X136156913Y-81538007I-984808J-173648D01*
G01*
X136156913Y-81538007D01*
G75*
G02*
X134998457Y-80726847I-173648J984808D01*
G01*
X134998457Y-80726847D01*
G75*
G02*
X135809617Y-79568391I984808J173648D01*
G01*
X135809617Y-79568391D01*
G75*
G02*
X136968073Y-80379551I173648J-984808D01*
G01*
G37*
X143487500Y-79230000D03*
D10*
X241154500Y-63945000D03*
X234804500Y-66485000D03*
D11*
X233534500Y-69025000D03*
X243694500Y-69025000D03*
D12*
X238614500Y-69025000D03*
D10*
X260154500Y-68695000D03*
X253804500Y-71235000D03*
D11*
X252534500Y-73775000D03*
X262694500Y-73775000D03*
D12*
X257614500Y-73775000D03*
D10*
X279154500Y-49695000D03*
X272804500Y-52235000D03*
D11*
X271534500Y-54775000D03*
X281694500Y-54775000D03*
D12*
X276614500Y-54775000D03*
D10*
X184147500Y-28325000D03*
X177797500Y-30865000D03*
D11*
X176527500Y-33405000D03*
X186687500Y-33405000D03*
D12*
X181607500Y-33405000D03*
D10*
X98647500Y-25950000D03*
X92297500Y-28490000D03*
D11*
X91027500Y-31030000D03*
X101187500Y-31030000D03*
D12*
X96107500Y-31030000D03*
D14*
X165797500Y-59880000D03*
X165797500Y-57340000D03*
G36*
G01*
X164747500Y-55650000D02*
X164747500Y-53950000D01*
G75*
G02*
X164947500Y-53750000I200000J0D01*
G01*
X166647500Y-53750000D01*
G75*
G02*
X166847500Y-53950000I0J-200000D01*
G01*
X166847500Y-55650000D01*
G75*
G02*
X166647500Y-55850000I-200000J0D01*
G01*
X164947500Y-55850000D01*
G75*
G02*
X164747500Y-55650000I0J200000D01*
G01*
G37*
X132837500Y-59940000D03*
X132837500Y-57400000D03*
G36*
G01*
X131787500Y-55710000D02*
X131787500Y-54010000D01*
G75*
G02*
X131987500Y-53810000I200000J0D01*
G01*
X133687500Y-53810000D01*
G75*
G02*
X133887500Y-54010000I0J-200000D01*
G01*
X133887500Y-55710000D01*
G75*
G02*
X133687500Y-55910000I-200000J0D01*
G01*
X131987500Y-55910000D01*
G75*
G02*
X131787500Y-55710000I0J200000D01*
G01*
G37*
D15*
X168850500Y-74264000D03*
D16*
X267099500Y-64265500D03*
X191144500Y-41775500D03*
X267099500Y-45265500D03*
X223955500Y-81530500D03*
D15*
X154418500Y-82785000D03*
D16*
X177389500Y-89145000D03*
D15*
X142301500Y-82775000D03*
X127869500Y-74254000D03*
D16*
X119330500Y-89135000D03*
X72764500Y-81520500D03*
X105575500Y-41765500D03*
X29607500Y-64280000D03*
X29607500Y-45280000D03*
D17*
X161037500Y-74270000D03*
X154037500Y-74270000D03*
X135634500Y-74292000D03*
X142634500Y-74292000D03*
D10*
X126728091Y-90415295D03*
X125752795Y-97184557D03*
D11*
X127317500Y-99554409D03*
X132397500Y-90755591D03*
D12*
X129857500Y-95155000D03*
D10*
X172533909Y-94809705D03*
X167159205Y-90580443D03*
D11*
X164324500Y-90750591D03*
X169404500Y-99549409D03*
D12*
X166864500Y-95150000D03*
D10*
X117647500Y-28325000D03*
X111297500Y-30865000D03*
D11*
X110027500Y-33405000D03*
X120187500Y-33405000D03*
D12*
X115107500Y-33405000D03*
D10*
X184154500Y-47320000D03*
X177804500Y-49860000D03*
D11*
X176534500Y-52400000D03*
X186694500Y-52400000D03*
D12*
X181614500Y-52400000D03*
D10*
X184154500Y-66320000D03*
X177804500Y-68860000D03*
D11*
X176534500Y-71400000D03*
X186694500Y-71400000D03*
D12*
X181614500Y-71400000D03*
D10*
X22647500Y-68700000D03*
X16297500Y-71240000D03*
D11*
X15027500Y-73780000D03*
X25187500Y-73780000D03*
D12*
X20107500Y-73780000D03*
D10*
X222154500Y-61570000D03*
X215804500Y-64110000D03*
D11*
X214534500Y-66650000D03*
X224694500Y-66650000D03*
D12*
X219614500Y-66650000D03*
D10*
X41647500Y-68700000D03*
X35297500Y-71240000D03*
D11*
X34027500Y-73780000D03*
X44187500Y-73780000D03*
D12*
X39107500Y-73780000D03*
D10*
X22647500Y-49700000D03*
X16297500Y-52240000D03*
D11*
X15027500Y-54780000D03*
X25187500Y-54780000D03*
D12*
X20107500Y-54780000D03*
D10*
X41647500Y-49700000D03*
X35297500Y-52240000D03*
D11*
X34027500Y-54780000D03*
X44187500Y-54780000D03*
D12*
X39107500Y-54780000D03*
D10*
X22647500Y-30700000D03*
X16297500Y-33240000D03*
D11*
X15027500Y-35780000D03*
X25187500Y-35780000D03*
D12*
X20107500Y-35780000D03*
D10*
X41647500Y-30700000D03*
X35297500Y-33240000D03*
D11*
X34027500Y-35780000D03*
X44187500Y-35780000D03*
D12*
X39107500Y-35780000D03*
D10*
X60647500Y-25950000D03*
X54297500Y-28490000D03*
D11*
X53027500Y-31030000D03*
X63187500Y-31030000D03*
D12*
X58107500Y-31030000D03*
D10*
X79647500Y-23575000D03*
X73297500Y-26115000D03*
D11*
X72027500Y-28655000D03*
X82187500Y-28655000D03*
D12*
X77107500Y-28655000D03*
D10*
X60647500Y-44950000D03*
X54297500Y-47490000D03*
D11*
X53027500Y-50030000D03*
X63187500Y-50030000D03*
D12*
X58107500Y-50030000D03*
D10*
X79647500Y-42575000D03*
X73297500Y-45115000D03*
D11*
X72027500Y-47655000D03*
X82187500Y-47655000D03*
D12*
X77107500Y-47655000D03*
D10*
X60647500Y-63950000D03*
X54297500Y-66490000D03*
D11*
X53027500Y-69030000D03*
X63187500Y-69030000D03*
D12*
X58107500Y-69030000D03*
D10*
X79647500Y-61575000D03*
X73297500Y-64115000D03*
D11*
X72027500Y-66655000D03*
X82187500Y-66655000D03*
D12*
X77107500Y-66655000D03*
D10*
X98647500Y-63950000D03*
X92297500Y-66490000D03*
D11*
X91027500Y-69030000D03*
X101187500Y-69030000D03*
D12*
X96107500Y-69030000D03*
D10*
X117647500Y-66325000D03*
X111297500Y-68865000D03*
D11*
X110027500Y-71405000D03*
X120187500Y-71405000D03*
D12*
X115107500Y-71405000D03*
D10*
X89147500Y-83575000D03*
X82797500Y-86115000D03*
D11*
X81527500Y-88655000D03*
X91687500Y-88655000D03*
D12*
X86607500Y-88655000D03*
D10*
X111375752Y-87155497D03*
X104584723Y-87965448D03*
D11*
X102700597Y-90090199D03*
X112514403Y-92719801D03*
D12*
X107607500Y-91405000D03*
D10*
X279154500Y-30695000D03*
X272804500Y-33235000D03*
D11*
X271534500Y-35775000D03*
X281694500Y-35775000D03*
D12*
X276614500Y-35775000D03*
D10*
X260154500Y-30695000D03*
X253804500Y-33235000D03*
D11*
X252534500Y-35775000D03*
X262694500Y-35775000D03*
D12*
X257614500Y-35775000D03*
D10*
X241154500Y-25945000D03*
X234804500Y-28485000D03*
D11*
X233534500Y-31025000D03*
X243694500Y-31025000D03*
D12*
X238614500Y-31025000D03*
D10*
X222154500Y-23570000D03*
X215804500Y-26110000D03*
D11*
X214534500Y-28650000D03*
X224694500Y-28650000D03*
D12*
X219614500Y-28650000D03*
D10*
X203154500Y-25945000D03*
X196804500Y-28485000D03*
D11*
X195534500Y-31025000D03*
X205694500Y-31025000D03*
D12*
X200614500Y-31025000D03*
D10*
X260154500Y-49695000D03*
X253804500Y-52235000D03*
D11*
X252534500Y-54775000D03*
X262694500Y-54775000D03*
D12*
X257614500Y-54775000D03*
D10*
X241154500Y-44945000D03*
X234804500Y-47485000D03*
D11*
X233534500Y-50025000D03*
X243694500Y-50025000D03*
D12*
X238614500Y-50025000D03*
D10*
X222154500Y-42570000D03*
X215804500Y-45110000D03*
D11*
X214534500Y-47650000D03*
X224694500Y-47650000D03*
D12*
X219614500Y-47650000D03*
D10*
X203154500Y-44945000D03*
X196804500Y-47485000D03*
D11*
X195534500Y-50025000D03*
X205694500Y-50025000D03*
D12*
X200614500Y-50025000D03*
D10*
X279154500Y-68695000D03*
X272804500Y-71235000D03*
D11*
X271534500Y-73775000D03*
X281694500Y-73775000D03*
D12*
X276614500Y-73775000D03*
D10*
X203154500Y-63945000D03*
X196804500Y-66485000D03*
D11*
X195534500Y-69025000D03*
X205694500Y-69025000D03*
D12*
X200614500Y-69025000D03*
D10*
X212654500Y-83570000D03*
X206304500Y-86110000D03*
D11*
X205034500Y-88650000D03*
X215194500Y-88650000D03*
D12*
X210114500Y-88650000D03*
D10*
X190253151Y-85835696D03*
X184776922Y-89932649D03*
D11*
X184207597Y-92714801D03*
X194021403Y-90085199D03*
D12*
X189114500Y-91400000D03*
D18*
X238649500Y-21870000D03*
X238055750Y-21870000D03*
X237462000Y-21870000D03*
X236868250Y-21870000D03*
X236274500Y-21870000D03*
X240430750Y-21870000D03*
X239243250Y-21870000D03*
X241024500Y-21870000D03*
X239837000Y-21870000D03*
X200737500Y-21885000D03*
X200143750Y-21885000D03*
X199550000Y-21885000D03*
X198956250Y-21885000D03*
X198362500Y-21885000D03*
X202518750Y-21885000D03*
X201331250Y-21885000D03*
X203112500Y-21885000D03*
X201925000Y-21885000D03*
X238741500Y-83193000D03*
X238147750Y-83193000D03*
X237554000Y-83193000D03*
X236960250Y-83193000D03*
X236366500Y-83193000D03*
X240522750Y-83193000D03*
X239335250Y-83193000D03*
X241116500Y-83193000D03*
X239929000Y-83193000D03*
X276655500Y-83183000D03*
X276061750Y-83183000D03*
X275468000Y-83183000D03*
X274874250Y-83183000D03*
X274280500Y-83183000D03*
X278436750Y-83183000D03*
X277249250Y-83183000D03*
X279030500Y-83183000D03*
X277843000Y-83183000D03*
X56936000Y-83178000D03*
X55748500Y-83178000D03*
X57529750Y-83178000D03*
X56342250Y-83178000D03*
X60498500Y-83178000D03*
X59904750Y-83178000D03*
X59311000Y-83178000D03*
X58717250Y-83178000D03*
X58123500Y-83178000D03*
X18975000Y-83176000D03*
X17787500Y-83176000D03*
X19568750Y-83176000D03*
X18381250Y-83176000D03*
X22537500Y-83176000D03*
X21943750Y-83176000D03*
X21350000Y-83176000D03*
X20756250Y-83176000D03*
X20162500Y-83176000D03*
X95020000Y-21873000D03*
X93832500Y-21873000D03*
X95613750Y-21873000D03*
X94426250Y-21873000D03*
X98582500Y-21873000D03*
X97988750Y-21873000D03*
X97395000Y-21873000D03*
X96801250Y-21873000D03*
X96207500Y-21873000D03*
X57049250Y-21869000D03*
X55861750Y-21869000D03*
X57643000Y-21869000D03*
X56455500Y-21869000D03*
X60611750Y-21869000D03*
X60018000Y-21869000D03*
X59424250Y-21869000D03*
X58830500Y-21869000D03*
X58236750Y-21869000D03*
M02*
