M48
; DRILL file {KiCad 5.1.9} date Wed Apr  7 10:26:12 2021
; FORMAT={-:-/ absolute / inch / decimal}
; #@! TF.CreationDate,2021-04-07T10:26:12-06:00
; #@! TF.GenerationSoftware,Kicad,Pcbnew,5.1.9
; #@! TF.FileFunction,NonPlated,1,2,NPTH
FMAT,2
INCH
T1C0.0118
T2C0.0472
T3C0.0748
T4C0.0866
T5C0.1181
T6C0.1614
T7C0.1693
%
G90
G05
T1
X0.7003Y-3.2746
X0.7237Y-3.2746
X0.747Y-3.2746
X0.7704Y-3.2746
X0.7938Y-3.2746
X0.8172Y-3.2746
X0.8406Y-3.2746
X0.8639Y-3.2746
X0.8873Y-3.2746
X2.1948Y-3.2747
X2.1993Y-0.861
X2.2182Y-3.2747
X2.2227Y-0.861
X2.2416Y-3.2747
X2.246Y-0.861
X2.265Y-3.2747
X2.2694Y-0.861
X2.2883Y-3.2747
X2.2928Y-0.861
X2.3117Y-3.2747
X2.3162Y-0.861
X2.3351Y-3.2747
X2.3395Y-0.861
X2.3585Y-3.2747
X2.3629Y-0.861
X2.3818Y-3.2747
X2.3863Y-0.861
X3.6942Y-0.8611
X3.7176Y-0.8611
X3.7409Y-0.8611
X3.7643Y-0.8611
X3.7877Y-0.8611
X3.8111Y-0.8611
X3.8344Y-0.8611
X3.8578Y-0.8611
X3.8812Y-0.8611
X7.8095Y-0.8616
X7.8329Y-0.8616
X7.8563Y-0.8616
X7.8797Y-0.8616
X7.9031Y-0.8616
X7.9264Y-0.8616
X7.9498Y-0.8616
X7.9732Y-0.8616
X7.9966Y-0.8616
X9.3021Y-0.861
X9.3058Y-3.2753
X9.3255Y-0.861
X9.3291Y-3.2753
X9.3489Y-0.861
X9.3525Y-3.2753
X9.3723Y-0.861
X9.3759Y-3.2753
X9.3956Y-0.861
X9.3993Y-3.2753
X9.419Y-0.861
X9.4226Y-3.2753
X9.4424Y-0.861
X9.446Y-3.2753
X9.4658Y-0.861
X9.4694Y-3.2753
X9.4892Y-0.861
X9.4928Y-3.2753
X10.7984Y-3.2749
X10.8218Y-3.2749
X10.8452Y-3.2749
X10.8686Y-3.2749
X10.8919Y-3.2749
X10.9153Y-3.2749
X10.9387Y-3.2749
X10.9621Y-3.2749
X10.9855Y-3.2749
T2
X5.3399Y-2.9249
X5.6155Y-2.9249
X6.0645Y-2.924
X6.3401Y-2.924
T3
X0.5916Y-1.4087
X0.5916Y-2.1567
X0.5916Y-2.9047
X0.9916Y-1.4087
X0.9916Y-2.1567
X0.9916Y-2.9047
X1.3397Y-1.4087
X1.3397Y-2.1567
X1.3397Y-2.9047
X1.7397Y-1.4087
X1.7397Y-2.1567
X1.7397Y-2.9047
X2.0877Y-1.2217
X2.0877Y-1.9697
X2.0877Y-2.7177
X2.4877Y-1.2217
X2.4877Y-1.9697
X2.4877Y-2.7177
X2.8357Y-1.1281
X2.8357Y-1.8762
X2.8357Y-2.6242
X3.2097Y-3.4904
X3.2357Y-1.1281
X3.2357Y-1.8762
X3.2357Y-2.6242
X3.5838Y-1.2217
X3.5838Y-1.9697
X3.5838Y-2.7177
X3.6097Y-3.4904
X3.9838Y-1.2217
X3.9838Y-1.9697
X3.9838Y-2.7177
X4.0433Y-3.5469
X4.3318Y-1.3152
X4.3318Y-2.0632
X4.3318Y-2.8112
X4.4297Y-3.6504
X4.7318Y-1.3152
X4.7318Y-2.0632
X4.7318Y-2.8112
X5.0125Y-3.9195
X5.2125Y-3.5731
X6.4695Y-3.5729
X6.6695Y-3.9193
X6.9499Y-1.3152
X6.9502Y-2.063
X6.9502Y-2.811
X7.2523Y-3.6502
X7.3499Y-1.3152
X7.3502Y-2.063
X7.3502Y-2.811
X7.6386Y-3.5467
X7.6982Y-1.2215
X7.6982Y-1.9695
X7.6982Y-2.7175
X8.0722Y-3.4902
X8.0982Y-1.2215
X8.0982Y-1.9695
X8.0982Y-2.7175
X8.4462Y-1.128
X8.4462Y-1.876
X8.4462Y-2.624
X8.4722Y-3.4902
X8.8462Y-1.128
X8.8462Y-1.876
X8.8462Y-2.624
X9.1943Y-1.2215
X9.1943Y-1.9695
X9.1943Y-2.7175
X9.5943Y-1.2215
X9.5943Y-1.9695
X9.5943Y-2.7175
X9.9423Y-1.4085
X9.9423Y-2.1565
X9.9423Y-2.9045
X10.3423Y-1.4085
X10.3423Y-2.1565
X10.3423Y-2.9045
X10.6903Y-1.4085
X10.6903Y-2.1565
X10.6903Y-2.9045
X11.0903Y-1.4085
X11.0903Y-2.1565
X11.0903Y-2.9045
T4
X5.0342Y-2.9234
X5.6024Y-3.2589
X6.0795Y-3.2593
X6.6477Y-2.9238
T5
X0.6416Y-1.3087
X0.6416Y-2.0567
X0.6416Y-2.8047
X0.8916Y-1.2087
X0.8916Y-1.9567
X0.8916Y-2.7047
X1.3897Y-1.3087
X1.3897Y-2.0567
X1.3897Y-2.8047
X1.6397Y-1.2087
X1.6397Y-1.9567
X1.6397Y-2.7047
X2.1377Y-1.1217
X2.1377Y-1.8697
X2.1377Y-2.6177
X2.3877Y-1.0217
X2.3877Y-1.7697
X2.3877Y-2.5177
X2.8857Y-1.0281
X2.8857Y-1.7762
X2.8857Y-2.5242
X3.1357Y-0.9281
X3.1357Y-1.6762
X3.1357Y-2.4242
X3.2597Y-3.3904
X3.5097Y-3.2904
X3.6338Y-1.1217
X3.6338Y-1.8697
X3.6338Y-2.6177
X3.8838Y-1.0217
X3.8838Y-1.7697
X3.8838Y-2.5177
X4.1175Y-3.4632
X4.3818Y-1.2152
X4.3818Y-1.9632
X4.3818Y-2.7112
X4.3849Y-3.4313
X4.6318Y-1.1152
X4.6318Y-1.8632
X4.6318Y-2.6112
X4.9509Y-3.8262
X4.9893Y-3.5597
X6.5811Y-3.5662
X6.7927Y-3.7327
X6.9999Y-1.2152
X7.0002Y-1.963
X7.0002Y-2.711
X7.2499Y-1.1152
X7.2502Y-1.863
X7.2502Y-2.611
X7.2747Y-3.5407
X7.4903Y-3.3794
X7.7482Y-1.1215
X7.7482Y-1.8695
X7.7482Y-2.6175
X7.9982Y-1.0215
X7.9982Y-1.7695
X7.9982Y-2.5175
X8.1222Y-3.3902
X8.3722Y-3.2902
X8.4962Y-1.028
X8.4962Y-1.776
X8.4962Y-2.524
X8.7462Y-0.928
X8.7462Y-1.676
X8.7462Y-2.424
X9.2443Y-1.1215
X9.2443Y-1.8695
X9.2443Y-2.6175
X9.4943Y-1.0215
X9.4943Y-1.7695
X9.4943Y-2.5175
X9.9923Y-1.3085
X9.9923Y-2.0565
X9.9923Y-2.8045
X10.2423Y-1.2085
X10.2423Y-1.9565
X10.2423Y-2.7045
X10.7403Y-1.3085
X10.7403Y-2.0565
X10.7403Y-2.8045
X10.9903Y-1.2085
X10.9903Y-1.9565
X10.9903Y-2.7045
T6
X0.7916Y-1.4087
X0.7916Y-2.1567
X0.7916Y-2.9047
X1.5397Y-1.4087
X1.5397Y-2.1567
X1.5397Y-2.9047
X2.2877Y-1.2217
X2.2877Y-1.9697
X2.2877Y-2.7177
X3.0357Y-1.1281
X3.0357Y-1.8762
X3.0357Y-2.6242
X3.4097Y-3.4904
X3.7838Y-1.2217
X3.7838Y-1.9697
X3.7838Y-2.7177
X4.2365Y-3.5986
X4.5318Y-1.3152
X4.5318Y-2.0632
X4.5318Y-2.8112
X5.1125Y-3.7463
X6.5695Y-3.7461
X7.1499Y-1.3152
X7.1502Y-2.063
X7.1502Y-2.811
X7.4455Y-3.5984
X7.8982Y-1.2215
X7.8982Y-1.9695
X7.8982Y-2.7175
X8.2722Y-3.4902
X8.6462Y-1.128
X8.6462Y-1.876
X8.6462Y-2.624
X9.3943Y-1.2215
X9.3943Y-1.9695
X9.3943Y-2.7175
X10.1423Y-1.4085
X10.1423Y-2.1565
X10.1423Y-2.9045
X10.8903Y-1.4085
X10.8903Y-2.1565
X10.8903Y-2.9045
T7
X1.1656Y-1.7827
X1.1656Y-2.5307
X2.8647Y-3.2095
X4.1565Y-1.6443
X4.6981Y-3.5093
X6.9838Y-3.5096
X7.5254Y-1.6447
X8.8171Y-3.2099
X10.5157Y-1.7821
X10.5157Y-2.5301
T0
M30
